<svg width="622" height="548" viewBox="0 0 1012.86 562" xmlns="http://www.w3.org/2000/svg" xmlns:xlink="http://www.w3.org/1999/xlink">
<g id="graph0" class="graph" transform="translate(3.999980468749982,558.0000073242186) scale(1)">
<title>G</title>
<polygon fill="white" stroke="transparent" points="-4,4 -4,-558 1008.86,-558 1008.86,4 -4,4"/>
<!-- n2 --><g id="clust1" class="cluster">
<title>cluster_right</title>
<polygon fill="none" stroke="black" points="926.86,-251 926.86,-303 996.86,-303 996.86,-251 926.86,-251"/>
</g>
<g id="node1" class="node">
<title>n2</title>
<ellipse fill="none" stroke="red" cx="961.86" cy="-277" rx="27" ry="18"/>
<text text-anchor="middle" x="961.86" y="-272.8" font-family="Times,serif" font-size="14">all</text>
</g><g id="clust2" class="cluster">
<title>cluster_mid_left</title>
<polygon fill="none" stroke="black" points="259.68,-116 259.68,-546 561.2,-546 561.2,-116 259.68,-116"/>
</g>
<!-- n8 --><g id="clust3" class="cluster">
<title>cluster_mid_right</title>
<polygon fill="none" stroke="black" points="581.2,-8 581.2,-546 906.86,-546 906.86,-8 581.2,-8"/>
</g>
<g id="clust4" class="cluster">
<title>cluster_left</title>
<polygon fill="none" stroke="black" points="8,-143 8,-465 239.68,-465 239.68,-143 8,-143"/>
</g>
<!-- n15 -->

<!-- n8&#45;&gt;n15 -->
<g id="node2" class="node">
<title>n8</title>
<ellipse fill="none" stroke="blue" cx="410.44" cy="-304" rx="89.79" ry="18"/>
<text text-anchor="middle" x="410.44" y="-299.8" font-family="Times,serif" font-size="14.00">bin/sFusedMM_pt.o</text>
</g>
<!-- n3 -->
<g id="node10" class="node">
<title>n15</title>
<ellipse fill="none" stroke="red" cx="744.03" cy="-520" rx="115.81" ry="18"/>
<text text-anchor="middle" x="744.03" y="-515.8" font-family="Times,serif" font-size="14.00">bin/xsFusedMMtime_fr_pt</text>
</g>
<!-- n8&#45;&gt;n3 -->
<g id="edge32" class="edge">
<title>n8-&gt;n15</title>
<path fill="none" stroke="black" d="M499.64,-301.8C522.54,-305.64 545.22,-314.11 561.2,-331 611.05,-383.7 531,-440.62 581.2,-493 591.53,-503.78 604.41,-511.27 618.37,-516.38"/>
<polygon fill="black" stroke="black" points="617.59,-519.81 628.18,-519.54 619.74,-513.14 617.59,-519.81"/>
</g>
<!-- n19 -->
<g id="node11" class="node">
<title>n3</title>
<ellipse fill="none" stroke="red" cx="744.03" cy="-412" rx="123.33" ry="18"/>
<text text-anchor="middle" x="744.03" y="-407.8" font-family="Times,serif" font-size="14.00">bin/xsFusedMMtime_gcn_pt</text>
</g>
<!-- n8&#45;&gt;n19 -->
<g id="node4" class="node">
<title>n4</title>
<ellipse fill="none" stroke="blue" cx="410.44" cy="-412" rx="125.66" ry="18"/>
<text text-anchor="middle" x="410.44" y="-407.8" font-family="Times,serif" font-size="14.00">bin/sFusedMMtime_gcn_pt.o</text>
</g><g id="edge35" class="edge">
<title>n8-&gt;n3</title>
<path fill="none" stroke="black" d="M500.37,-304.89C522.22,-308.95 544.19,-316.75 561.2,-331 580.82,-347.43 561.47,-368.7 581.2,-385 591.26,-393.31 602.9,-399.52 615.24,-404.1"/>
<polygon fill="black" stroke="black" points="614.2,-407.44 624.8,-407.29 616.42,-400.8 614.2,-407.44"/>
</g>
<!-- n13 -->
<g id="node5" class="node">
<title>n20</title>
<ellipse fill="none" stroke="blue" cx="410.44" cy="-466" rx="142.52" ry="18"/>
<text text-anchor="middle" x="410.44" y="-461.8" font-family="Times,serif" font-size="14.00">bin/sFusedMMtime_sigmoid_pt.o</text>
</g><g id="node12" class="node">
<title>n19</title>
<ellipse fill="none" stroke="red" cx="744.03" cy="-466" rx="140.19" ry="18"/>
<text text-anchor="middle" x="744.03" y="-461.8" font-family="Times,serif" font-size="14.00">bin/xsFusedMMtime_sigmoid_pt</text>
</g>
<!-- n8&#45;&gt;n13 -->
<g id="node6" class="node">
<title>n14</title>
<ellipse fill="none" stroke="blue" cx="410.44" cy="-358" rx="135.49" ry="18"/>
<text text-anchor="middle" x="410.44" y="-353.8" font-family="Times,serif" font-size="14.00">bin/sFusedMMtime_spmm_pt.o</text>
</g><g id="edge38" class="edge">
<title>n8-&gt;n19</title>
<path fill="none" stroke="black" d="M500.16,-302.63C522.65,-306.57 545,-314.88 561.2,-331 595.8,-365.44 546.38,-404.79 581.2,-439 587.92,-445.6 595.59,-450.94 603.87,-455.24"/>
<polygon fill="black" stroke="black" points="602.53,-458.48 613.08,-459.52 605.48,-452.13 602.53,-458.48"/>
</g>
<!-- n17 -->
<g id="node7" class="node">
<title>n18</title>
<ellipse fill="none" stroke="blue" cx="410.44" cy="-196" rx="128.05" ry="18"/>
<text text-anchor="middle" x="410.44" y="-191.8" font-family="Times,serif" font-size="14.00">bin/sFusedMMtime_tdist_pt.o</text>
</g><g id="node13" class="node">
<title>n13</title>
<ellipse fill="none" stroke="red" cx="744.03" cy="-358" rx="132.67" ry="18"/>
<text text-anchor="middle" x="744.03" y="-353.8" font-family="Times,serif" font-size="14.00">bin/xsFusedMMtime_spmm_pt</text>
</g>
<!-- n8&#45;&gt;n17 -->
<g id="edge41" class="edge">
<title>n8-&gt;n13</title>
<path fill="none" stroke="black" d="M480.55,-315.25C529.14,-323.17 594.76,-333.85 648.23,-342.56"/>
<polygon fill="black" stroke="black" points="647.98,-346.07 658.41,-344.22 649.11,-339.16 647.98,-346.07"/>
</g>
<!-- n16 -->
<g id="node3" class="node">
<title>n16</title>
<ellipse fill="none" stroke="blue" cx="410.44" cy="-520" rx="118.14" ry="18"/>
<text text-anchor="middle" x="410.44" y="-515.8" font-family="Times,serif" font-size="14">bin/sFusedMMtime_fr_pt.o</text>
</g><g id="node14" class="node">
<title>n17</title>
<ellipse fill="none" stroke="red" cx="744.03" cy="-304" rx="125.72" ry="18"/>
<text text-anchor="middle" x="744.03" y="-299.8" font-family="Times,serif" font-size="14.00">bin/xsFusedMMtime_tdist_pt</text>
</g>
<!-- n16&#45;&gt;n15 -->
<g id="edge44" class="edge">
<title>n8-&gt;n17</title>
<path fill="none" stroke="black" d="M500.3,-304C533.36,-304 571.65,-304 607.92,-304"/>
<polygon fill="black" stroke="black" points="608.09,-307.5 618.09,-304 608.09,-300.5 608.09,-307.5"/>
</g>
<!-- n24 -->
<g id="node15" class="node">
<title>n24</title>
<ellipse fill="none" stroke="rgb(255, 0, 0)" cx="744.03" cy="-250" rx="130.28" ry="18"/>
<text text-anchor="middle" x="744.03" y="-245.8" font-family="Times,serif" font-size="14">bin/xsOptFusedMMtime_fr_pt</text>
</g>
<!-- n16&#45;&gt;n24 -->
<g id="edge47" class="edge">
<title>n16-&gt;n24</title>
<path fill="none" stroke="black" d="M525.64,-515.87C539.09,-510.93 551.47,-503.61 561.2,-493 593.79,-457.48 548.38,-312.31 581.2,-277 588.7,-268.93 597.62,-262.69 607.37,-257.9"/>
<polygon fill="black" stroke="black" points="608.78,-261.1 616.54,-253.9 605.98,-254.69 608.78,-261.1"/>
</g><g id="edge33" class="edge">
<title>n16-&gt;n15</title>
<path fill="none" stroke="black" d="M528.81,-520C557.73,-520 588.8,-520 618.06,-520"/>
<polygon fill="black" stroke="black" points="618.32,-523.5 628.32,-520 618.32,-516.5 618.32,-523.5"/>
</g>
<!-- n4 -->

<!-- n4&#45;&gt;n3 -->

<!-- n9&#45;&gt;n8 -->
<g id="edge11" class="edge">
<title>n9-&gt;n8</title>
<path fill="none" stroke="black" d="M179.84,-170.04C201.06,-173.21 223.96,-180.45 239.68,-196 266.05,-222.07 232.64,-251.63 259.68,-277 273.71,-290.16 291.87,-298.02 310.68,-302.53"/>
<polygon fill="black" stroke="black" points="310.06,-305.97 320.56,-304.59 311.49,-299.12 310.06,-305.97"/>
</g>
<!-- n21 -->

<!-- n4&#45;&gt;n21 -->
<g id="edge36" class="edge">
<title>n4-&gt;n3</title>
<path fill="none" stroke="black" d="M536.33,-412C560.61,-412 586.15,-412 610.66,-412"/>
<polygon fill="black" stroke="black" points="610.73,-415.5 620.73,-412 610.73,-408.5 610.73,-415.5"/>
</g>
<!-- n20 -->

<!-- n6&#45;&gt;n8 -->
<g id="edge12" class="edge">
<title>n6-&gt;n8</title>
<path fill="none" stroke="black" d="M178.04,-325.95C217.61,-322.2 272.56,-316.99 318.99,-312.58"/>
<polygon fill="black" stroke="black" points="319.43,-316.05 329.06,-311.63 318.77,-309.09 319.43,-316.05"/>
</g><g id="node16" class="node">
<title>n21</title>
<ellipse fill="none" stroke="red" cx="744.03" cy="-142" rx="137.8" ry="18"/>
<text text-anchor="middle" x="744.03" y="-137.8" font-family="Times,serif" font-size="14.00">bin/xsOptFusedMMtime_gcn_pt</text>
</g>
<!-- n20&#45;&gt;n19 -->
<g id="edge50" class="edge">
<title>n4-&gt;n21</title>
<path fill="none" stroke="black" d="M529.68,-406.3C541.56,-401.42 552.45,-394.54 561.2,-385 593.79,-349.48 548.38,-204.31 581.2,-169 587.68,-162.03 595.23,-156.42 603.45,-151.93"/>
<polygon fill="black" stroke="black" points="605.14,-155 612.62,-147.49 602.09,-148.7 605.14,-155"/>
</g>


<!-- n6&#45;&gt;n4 -->
<g id="edge17" class="edge">
<title>n6-&gt;n4</title>
<path fill="none" stroke="black" d="M178.53,-335.71C198.96,-339.45 221.63,-346.12 239.68,-358 252.16,-366.21 247,-377.12 259.68,-385 269.68,-391.21 280.73,-396.07 292.16,-399.87"/>
<polygon fill="black" stroke="black" points="291.25,-403.26 301.84,-402.82 293.29,-396.56 291.25,-403.26"/>
</g>


<!-- n6&#45;&gt;n20 -->
<g id="edge20" class="edge">
<title>n6-&gt;n20</title>
<path fill="none" stroke="black" d="M180.14,-332.09C201.27,-335.28 224.03,-342.52 239.68,-358 266.05,-384.07 232.64,-413.63 259.68,-439 265.25,-444.22 271.46,-448.61 278.11,-452.28"/>
<polygon fill="black" stroke="black" points="276.9,-455.59 287.42,-456.86 279.99,-449.3 276.9,-455.59"/>
</g><g id="edge39" class="edge">
<title>n20-&gt;n19</title>
<path fill="none" stroke="black" d="M553.51,-466C566.75,-466 580.19,-466 593.49,-466"/>
<polygon fill="black" stroke="black" points="593.63,-469.5 603.63,-466 593.63,-462.5 593.63,-469.5"/>
</g>
<g id="node8" class="node">
<title>n22</title>
<ellipse fill="none" stroke="blue" cx="410.44" cy="-142" rx="104.26" ry="18"/>
<text text-anchor="middle" x="410.44" y="-137.8" font-family="Times,serif" font-size="14">bin/sOptFusedMM_pt.o</text>
</g><!-- n11&#45;&gt;n13 -->
<g id="edge43" class="edge">
<title>n11-&gt;n13</title>
<path fill="none" stroke="black" d="M527.38,-258.11C539.66,-262.57 551.28,-268.69 561.2,-277 580.82,-293.43 561.47,-314.7 581.2,-331 589.77,-338.09 599.5,-343.64 609.82,-347.96"/>
<polygon fill="black" stroke="black" points="608.86,-351.34 619.45,-351.59 611.33,-344.79 608.86,-351.34"/>
</g>
<!-- n11&#45;&gt;n17 -->
<g id="edge46" class="edge">
<title>n11-&gt;n17</title>
<path fill="none" stroke="black" d="M495.54,-263.7C542.75,-271.38 601.74,-280.99 650.29,-288.9"/>
<polygon fill="black" stroke="black" points="649.73,-292.35 660.17,-290.51 650.86,-285.44 649.73,-292.35"/>
</g>
<!-- n11&#45;&gt;n24 -->
<g id="edge49" class="edge">
<title>n11-&gt;n24</title>
<path fill="none" stroke="black" d="M541.07,-250C561.59,-250 582.9,-250 603.64,-250"/>
<polygon fill="black" stroke="black" points="603.77,-253.5 613.77,-250 603.77,-246.5 603.77,-253.5"/>
</g>
<!-- n11&#45;&gt;n21 -->
<g id="edge52" class="edge">
<title>n11-&gt;n21</title>
<path fill="none" stroke="black" d="M527.38,-241.89C539.66,-237.43 551.28,-231.31 561.2,-223 580.82,-206.57 561.47,-185.3 581.2,-169 589.27,-162.33 598.36,-157.02 608.01,-152.81"/>
<polygon fill="black" stroke="black" points="609.39,-156.03 617.41,-149.11 606.83,-149.52 609.39,-156.03"/>
</g>
<!-- n11&#45;&gt;n26 -->
<g id="edge55" class="edge">
<title>n11-&gt;n26</title>
<path fill="none" stroke="black" d="M495.54,-236.3C540.51,-228.98 596.15,-219.92 643.28,-212.24"/>
<polygon fill="black" stroke="black" points="643.9,-215.69 653.21,-210.63 642.77,-208.78 643.9,-215.69"/>
</g>
<!-- n11&#45;&gt;n23 -->
<g id="edge58" class="edge">
<title>n11-&gt;n23</title>
<path fill="none" stroke="black" d="M530.31,-242.91C541.78,-238.21 552.4,-231.76 561.2,-223 595.8,-188.56 546.38,-149.21 581.2,-115 587.13,-109.18 593.81,-104.33 600.99,-100.31"/>
<polygon fill="black" stroke="black" points="602.95,-103.25 610.34,-95.65 599.83,-96.98 602.95,-103.25"/>
</g>
<!-- n11&#45;&gt;n25 -->
<g id="edge61" class="edge">
<title>n11-&gt;n25</title>
<path fill="none" stroke="black" d="M531.57,-243.12C542.66,-238.36 552.85,-231.83 561.2,-223 611.05,-170.3 531,-113.38 581.2,-61 587.5,-54.43 594.75,-49.07 602.62,-44.74"/>
<polygon fill="black" stroke="black" points="604.3,-47.81 611.74,-40.27 601.22,-41.52 604.3,-47.81"/>
</g>
<!-- n15&#45;&gt;n2 -->
<g id="edge1" class="edge">
<title>n15-&gt;n2</title>
<path fill="none" stroke="black" d="M859.39,-517.97C876.92,-513.11 893.57,-505.27 906.86,-493 934.29,-467.67 951.07,-357.56 957.66,-305.05"/>
<polygon fill="black" stroke="black" points="961.14,-305.42 958.87,-295.07 954.19,-304.57 961.14,-305.42"/>
</g>
<!-- n3&#45;&gt;n2 -->
<g id="edge2" class="edge">
<title>n3-&gt;n2</title>
<path fill="none" stroke="black" d="M861.44,-406.26C877.73,-401.69 893.46,-394.9 906.86,-385 933.12,-365.6 947.42,-329.83 954.58,-304.79"/>
<polygon fill="black" stroke="black" points="958.06,-305.36 957.23,-294.79 951.29,-303.56 958.06,-305.36"/>
</g>
<!-- n19&#45;&gt;n2 -->
<g id="edge3" class="edge">
<title>n19-&gt;n2</title>
<path fill="none" stroke="black" d="M872.55,-458.64C885.04,-453.98 896.79,-447.61 906.86,-439 946.35,-405.25 957.08,-341.82 959.92,-305.14"/>
<polygon fill="black" stroke="black" points="963.41,-305.31 960.55,-295.11 956.43,-304.87 963.41,-305.31"/>
</g>
<!-- n13&#45;&gt;n2 -->
<g id="edge4" class="edge">
<title>n13-&gt;n2</title>
<path fill="none" stroke="black" d="M857.64,-348.51C874.7,-344.46 891.66,-338.82 906.86,-331 920.67,-323.89 933.15,-311.98 942.62,-301.15"/>
<polygon fill="black" stroke="black" points="945.55,-303.11 949.25,-293.18 940.17,-298.63 945.55,-303.11"/>
</g>
<!-- n17&#45;&gt;n2 -->
<g id="edge5" class="edge">
<title>n17-&gt;n2</title>
<path fill="none" stroke="black" d="M839.38,-292.2C869.68,-288.41 901.42,-284.44 924.86,-281.5"/>
<polygon fill="black" stroke="black" points="925.52,-284.95 935.01,-280.23 924.65,-278 925.52,-284.95"/>
</g>
<!-- n24&#45;&gt;n2 -->
<g id="edge6" class="edge">
<title>n24-&gt;n2</title>
<path fill="none" stroke="black" d="M841.27,-262.04C871.1,-265.77 902.13,-269.65 925.11,-272.53"/>
<polygon fill="black" stroke="black" points="924.71,-276 935.06,-273.77 925.58,-269.06 924.71,-276"/>
</g>
<!-- n21&#45;&gt;n2 -->
<g id="edge7" class="edge">
<title>n21-&gt;n2</title>
<path fill="none" stroke="black" d="M868.5,-149.87C882.25,-154.35 895.4,-160.54 906.86,-169 933.12,-188.4 947.42,-224.17 954.58,-249.21"/>
<polygon fill="black" stroke="black" points="951.29,-250.44 957.23,-259.21 958.06,-248.64 951.29,-250.44"/>
</g>
<!-- n26&#45;&gt;n2 -->
<g id="edge8" class="edge">
<title>n26-&gt;n2</title>
<path fill="none" stroke="black" d="M864.88,-207.31C879.47,-211.18 893.82,-216.29 906.86,-223 920.67,-230.11 933.15,-242.02 942.62,-252.85"/>
<polygon fill="black" stroke="black" points="940.17,-255.37 949.25,-260.82 945.55,-250.89 940.17,-255.37"/>
</g>
<!-- n23&#45;&gt;n2 -->
<g id="edge9" class="edge">
<title>n23-&gt;n2</title>
<path fill="none" stroke="black" d="M874.96,-96.29C886.55,-100.86 897.44,-106.95 906.86,-115 946.35,-148.75 957.08,-212.18 959.92,-248.86"/>
<polygon fill="black" stroke="black" points="956.43,-249.13 960.55,-258.89 963.41,-248.69 956.43,-249.13"/>
</g>
<!-- n25&#45;&gt;n2 -->
<g id="edge10" class="edge">
<title>n25-&gt;n2</title>
<path fill="none" stroke="black" d="M874.03,-40.91C886.09,-45.69 897.34,-52.21 906.86,-61 934.29,-86.33 951.07,-196.44 957.66,-248.95"/>
<polygon fill="black" stroke="black" points="954.19,-249.43 958.87,-258.93 961.14,-248.58 954.19,-249.43"/>
</g>
<!-- n9 -->
<g id="node20" class="node">
<title>n9</title>
<ellipse fill="none" stroke="forestgreen" cx="123.84" cy="-169" rx="55.65" ry="18"/>
<text text-anchor="middle" x="123.84" y="-164.8" font-family="Times,serif" font-size="14">fusedMM.c</text>
</g>
<!-- n9&#45;&gt;n22 -->
<g id="edge29" class="edge">
<title>n9-&gt;n22</title>
<path fill="none" stroke="black" d="M177.71,-163.98C214.39,-160.5 264.42,-155.76 308.6,-151.57"/>
<polygon fill="black" stroke="black" points="309.18,-155.03 318.81,-150.6 308.52,-148.06 309.18,-155.03"/>
</g>
<!-- n6 -->
<g id="node21" class="node">
<title>n6</title>
<ellipse fill="none" stroke="forestgreen" cx="123.84" cy="-331" rx="56.24" ry="18"/>
<text text-anchor="middle" x="123.84" y="-326.8" font-family="Times,serif" font-size="14">fusedMM.h</text>
</g>
<!-- n6&#45;&gt;n16 -->
<g id="edge14" class="edge">
<title>n6-&gt;n16</title>
<path fill="none" stroke="black" d="M180.3,-331.27C201.72,-334.3 224.64,-341.64 239.68,-358 280.74,-402.65 217.47,-449.44 259.68,-493 267.36,-500.92 276.51,-506.97 286.45,-511.56"/>
<polygon fill="black" stroke="black" points="285.2,-514.83 295.78,-515.37 287.85,-508.35 285.2,-514.83"/>
</g><!-- n6&#45;&gt;n14 -->

<!-- n6&#45;&gt;n14 -->
<g id="edge23" class="edge">
<title>n6-&gt;n14</title>
<path fill="none" stroke="black" d="M178.04,-336.05C209.5,-339.03 250.68,-342.94 289.56,-346.63"/>
<polygon fill="black" stroke="black" points="289.64,-350.15 299.92,-347.61 290.3,-343.18 289.64,-350.15"/>
</g><g id="node17" class="node">
<title>n26</title>
<ellipse fill="none" stroke="red" cx="744.03" cy="-196" rx="154.66" ry="18"/>
<text text-anchor="middle" x="744.03" y="-191.8" font-family="Times,serif" font-size="14.00">bin/xsOptFusedMMtime_sigmoid_pt</text>
</g>
<!-- n6&#45;&gt;n18 -->

<!-- n6&#45;&gt;n18 -->
<g id="edge26" class="edge">
<title>n6-&gt;n18</title>
<path fill="none" stroke="black" d="M180.14,-329.91C201.27,-326.72 224.03,-319.48 239.68,-304 266.05,-277.93 232.64,-248.37 259.68,-223 266.55,-216.56 274.4,-211.39 282.83,-207.26"/>
<polygon fill="black" stroke="black" points="284.42,-210.39 292.19,-203.18 281.62,-203.97 284.42,-210.39"/>
</g><g id="edge53" class="edge">
<title>n20-&gt;n26</title>
<path fill="none" stroke="black" d="M536.12,-457.4C545.49,-452.8 554.06,-446.79 561.2,-439 593.79,-403.48 548.38,-258.31 581.2,-223 586.09,-217.74 591.58,-213.26 597.51,-209.45"/>
<polygon fill="black" stroke="black" points="599.54,-212.32 606.49,-204.33 596.07,-206.24 599.54,-212.32"/>
</g>
<!-- n6&#45;&gt;n22 -->

<!-- n6&#45;&gt;n22 -->
<g id="edge30" class="edge">
<title>n6-&gt;n22</title>
<path fill="none" stroke="black" d="M180.3,-330.73C201.72,-327.7 224.64,-320.36 239.68,-304 280.74,-259.35 217.47,-212.56 259.68,-169 269.92,-158.44 282.78,-151.2 296.64,-146.33"/>
<polygon fill="black" stroke="black" points="297.86,-149.61 306.38,-143.32 295.79,-142.93 297.86,-149.61"/>
</g>
<!-- n10 -->

<!-- n10 -->
<g id="node22" class="node">
<title>n10</title>
<ellipse fill="none" stroke="forestgreen" cx="123.84" cy="-223" rx="90.88" ry="18"/>
<text text-anchor="middle" x="123.84" y="-218.8" font-family="Times,serif" font-size="14">fusedMM_internal.h</text>
</g><g id="edge42" class="edge">
<title>n14-&gt;n13</title>
<path fill="none" stroke="black" d="M545.83,-358C564.01,-358 582.71,-358 601.01,-358"/>
<polygon fill="black" stroke="black" points="601.14,-361.5 611.14,-358 601.14,-354.5 601.14,-361.5"/>
</g>
<!-- n10&#45;&gt;n8 -->

<!-- n10&#45;&gt;n8 -->
<g id="edge13" class="edge">
<title>n10-&gt;n8</title>
<path fill="none" stroke="black" d="M200.26,-232.74C214.09,-236.69 227.88,-242.23 239.68,-250 252.16,-258.21 247,-269.12 259.68,-277 275.66,-286.93 294.34,-293.42 312.98,-297.62"/>
<polygon fill="black" stroke="black" points="312.5,-301.1 323,-299.67 313.91,-294.24 312.5,-301.1"/>
</g><g id="node18" class="node">
<title>n23</title>
<ellipse fill="none" stroke="red" cx="744.03" cy="-88" rx="147.14" ry="18"/>
<text text-anchor="middle" x="744.03" y="-83.8" font-family="Times,serif" font-size="14.00">bin/xsOptFusedMMtime_spmm_pt</text>
</g>
<!-- n10&#45;&gt;n22 -->

<!-- n10&#45;&gt;n22 -->
<g id="edge31" class="edge">
<title>n10-&gt;n22</title>
<path fill="none" stroke="black" d="M200.26,-213.26C214.09,-209.31 227.88,-203.77 239.68,-196 252.16,-187.79 247,-176.88 259.68,-169 272.75,-160.88 287.63,-155.06 302.81,-150.91"/>
<polygon fill="black" stroke="black" points="303.96,-154.23 312.82,-148.42 302.27,-147.44 303.96,-154.23"/>
</g><g id="edge56" class="edge">
<title>n14-&gt;n23</title>
<path fill="none" stroke="black" d="M533.99,-350.41C544.2,-345.69 553.52,-339.37 561.2,-331 593.79,-295.48 548.38,-150.31 581.2,-115 586.72,-109.06 593.02,-104.11 599.85,-99.99"/>
<polygon fill="black" stroke="black" points="601.6,-103.03 608.77,-95.22 598.3,-96.85 601.6,-103.03"/>
</g>
<!-- n7 -->

<!-- n7 -->
<g id="node23" class="node">
<title>n7</title>
<ellipse fill="none" stroke="forestgreen" cx="123.84" cy="-385" rx="107.68" ry="18"/>
<text text-anchor="middle" x="123.84" y="-380.8" font-family="Times,serif" font-size="14">kernels/include/kernels.h</text>
</g><g id="edge48" class="edge">
<title>n22-&gt;n24</title>
<path fill="none" stroke="black" d="M512.83,-145.63C530.41,-150.15 547.43,-157.46 561.2,-169 580.82,-185.43 561.47,-206.7 581.2,-223 590.12,-230.37 600.27,-236.08 611.06,-240.47"/>
<polygon fill="black" stroke="black" points="610.08,-243.84 620.68,-244 612.5,-237.27 610.08,-243.84"/>
</g><g id="node9" class="node">
<title>n11</title>
<ellipse fill="none" stroke="blue" cx="410.44" cy="-250" rx="130.29" ry="18"/>
<text text-anchor="middle" x="410.44" y="-245.8" font-family="Times,serif" font-size="14">kernels/lib/slibgfusedMM_pt.a</text>
</g>
<!-- n7&#45;&gt;n16 -->

<!-- n7&#45;&gt;n16 -->
<g id="edge15" class="edge">
<title>n7-&gt;n16</title>
<path fill="none" stroke="black" d="M213.54,-395.08C223.23,-399.17 232.26,-404.66 239.68,-412 266.05,-438.07 232.64,-467.63 259.68,-493 267.87,-500.68 277.47,-506.56 287.78,-511.01"/>
<polygon fill="black" stroke="black" points="286.83,-514.4 297.43,-514.72 289.34,-507.87 286.83,-514.4"/>
</g><g id="edge45" class="edge">
<title>n18-&gt;n17</title>
<path fill="none" stroke="black" d="M526.62,-203.84C539.19,-208.32 551.07,-214.52 561.2,-223 580.82,-239.43 561.47,-260.7 581.2,-277 590.82,-284.95 601.88,-290.96 613.61,-295.48"/>
<polygon fill="black" stroke="black" points="612.55,-298.82 623.14,-298.79 614.84,-292.21 612.55,-298.82"/>
</g>
<!-- n7&#45;&gt;n4 -->

<!-- n7&#45;&gt;n4 -->
<g id="edge18" class="edge">
<title>n7-&gt;n4</title>
<path fill="none" stroke="black" d="M218.03,-393.84C242.65,-396.18 269.5,-398.72 295.09,-401.15"/>
<polygon fill="black" stroke="black" points="294.92,-404.65 305.21,-402.11 295.58,-397.68 294.92,-404.65"/>
</g><g id="node19" class="node">
<title>n25</title>
<ellipse fill="none" stroke="red" cx="744.03" cy="-34" rx="140.19" ry="18"/>
<text text-anchor="middle" x="744.03" y="-29.8" font-family="Times,serif" font-size="14.00">bin/xsOptFusedMMtime_tdist_pt</text>
</g>
<!-- n7&#45;&gt;n20 -->

<!-- n7&#45;&gt;n20 -->
<g id="edge21" class="edge">
<title>n7-&gt;n20</title>
<path fill="none" stroke="black" d="M206.56,-396.65C218.24,-400.43 229.67,-405.41 239.68,-412 252.16,-420.21 247,-431.12 259.68,-439 268.02,-444.18 277.08,-448.42 286.49,-451.89"/>
<polygon fill="black" stroke="black" points="285.41,-455.22 296,-455.11 287.65,-448.59 285.41,-455.22"/>
</g><g id="edge59" class="edge">
<title>n18-&gt;n25</title>
<path fill="none" stroke="black" d="M529.58,-189.21C541.33,-184.49 552.21,-177.95 561.2,-169 595.8,-134.56 546.38,-95.21 581.2,-61 587.92,-54.4 595.59,-49.06 603.87,-44.76"/>
<polygon fill="black" stroke="black" points="605.48,-47.87 613.08,-40.48 602.53,-41.52 605.48,-47.87"/>
</g>
<!-- n7&#45;&gt;n14 -->

<!-- n7&#45;&gt;n14 -->
<g id="edge24" class="edge">
<title>n7-&gt;n14</title>
<path fill="none" stroke="black" d="M218.03,-376.16C240.94,-373.99 265.78,-371.63 289.75,-369.36"/>
<polygon fill="black" stroke="black" points="290.33,-372.82 299.96,-368.39 289.67,-365.85 290.33,-372.82"/>
</g>
<!-- n7&#45;&gt;n18 -->

<!-- n7&#45;&gt;n18 -->
<g id="edge27" class="edge">
<title>n7-&gt;n18</title>
<path fill="none" stroke="black" d="M215.07,-375.21C224.32,-371.05 232.82,-365.46 239.68,-358 280.74,-313.35 217.47,-266.56 259.68,-223 266.03,-216.45 273.39,-211.18 281.36,-206.96"/>
<polygon fill="black" stroke="black" points="283.05,-210.03 290.62,-202.62 280.08,-203.7 283.05,-210.03"/>
</g>
<!-- n12 -->

<!-- n12 -->
<g id="node24" class="node">
<title>n12</title>
<ellipse fill="none" stroke="forestgreen" cx="123.84" cy="-277" rx="79.35" ry="18"/>
<text text-anchor="middle" x="123.84" y="-272.8" font-family="Times,serif" font-size="14">kernels/rungen.sh</text>
</g><g id="edge51" class="edge">
<title>n22-&gt;n21</title>
<path fill="none" stroke="black" d="M514.99,-142C540.72,-142 568.78,-142 596.15,-142"/>
<polygon fill="black" stroke="black" points="596.19,-145.5 606.19,-142 596.19,-138.5 596.19,-145.5"/>
</g>
<!-- n12&#45;&gt;n11 -->

<!-- n12&#45;&gt;n11 -->
<g id="edge62" class="edge">
<title>n12-&gt;n11</title>
<path fill="none" stroke="black" d="M197.39,-270.12C226.22,-267.38 260.13,-264.17 292.27,-261.12"/>
<polygon fill="black" stroke="black" points="293,-264.56 302.63,-260.13 292.34,-257.59 293,-264.56"/>
</g><g id="edge54" class="edge">
<title>n22-&gt;n26</title>
<path fill="none" stroke="black" d="M487.1,-154.32C533.42,-161.86 593.23,-171.6 643.38,-179.77"/>
<polygon fill="black" stroke="black" points="642.84,-183.23 653.28,-181.38 643.97,-176.32 642.84,-183.23"/>
</g>
<!-- n5 -->

<!-- n5 -->
<g id="node25" class="node">
<title>n5</title>
<ellipse fill="none" stroke="forestgreen" cx="123.84" cy="-439" rx="98.98" ry="18"/>
<text text-anchor="middle" x="123.84" y="-434.8" font-family="Times,serif" font-size="14">test/fusedMMtime.cpp</text>
</g><g id="edge57" class="edge">
<title>n22-&gt;n23</title>
<path fill="none" stroke="black" d="M487.1,-129.68C533.87,-122.06 594.39,-112.21 644.83,-103.99"/>
<polygon fill="black" stroke="black" points="645.47,-107.43 654.78,-102.37 644.35,-100.52 645.47,-107.43"/>
</g>
<!-- n5&#45;&gt;n16 -->

<!-- n5&#45;&gt;n16 -->
<g id="edge16" class="edge">
<title>n5-&gt;n16</title>
<path fill="none" stroke="black" d="M160.77,-455.71C187.54,-467.58 225.27,-483.12 259.68,-493 277.04,-497.98 295.8,-502.23 313.98,-505.78"/>
<polygon fill="black" stroke="black" points="313.53,-509.26 324.01,-507.68 314.83,-502.38 313.53,-509.26"/>
</g><g id="edge60" class="edge">
<title>n22-&gt;n25</title>
<path fill="none" stroke="black" d="M441.06,-124.71C474.14,-106.16 529.81,-77.19 581.2,-61 597.32,-55.92 614.67,-51.74 631.81,-48.33"/>
<polygon fill="black" stroke="black" points="632.7,-51.72 641.86,-46.4 631.38,-44.84 632.7,-51.72"/>
</g>
<!-- n5&#45;&gt;n4 -->

<!-- n5&#45;&gt;n4 -->
<g id="edge19" class="edge">
<title>n5-&gt;n4</title>
<path fill="none" stroke="black" d="M211.78,-430.75C238.06,-428.26 267.32,-425.48 295.1,-422.85"/>
<polygon fill="black" stroke="black" points="295.64,-426.31 305.26,-421.88 294.98,-419.34 295.64,-426.31"/>
</g>
<!-- n5&#45;&gt;n20 -->

<!-- n5&#45;&gt;n20 -->
<g id="edge22" class="edge">
<title>n5-&gt;n20</title>
<path fill="none" stroke="black" d="M211.78,-447.25C235.12,-449.46 260.83,-451.9 285.75,-454.27"/>
<polygon fill="black" stroke="black" points="285.72,-457.78 296.01,-455.24 286.38,-450.81 285.72,-457.78"/>
</g><g id="edge34" class="edge">
<title>n11-&gt;n15</title>
<path fill="none" stroke="black" d="M531.85,-256.62C542.89,-261.44 552.98,-268.05 561.2,-277 593.79,-312.52 548.38,-457.69 581.2,-493 591.44,-504.02 604.35,-511.64 618.38,-516.8"/>
<polygon fill="black" stroke="black" points="617.66,-520.24 628.25,-519.98 619.81,-513.58 617.66,-520.24"/>
</g>
<!-- n5&#45;&gt;n14 -->

<!-- n5&#45;&gt;n14 -->
<g id="edge25" class="edge">
<title>n5-&gt;n14</title>
<path fill="none" stroke="black" d="M203.56,-428.29C216.28,-424.41 228.82,-419.15 239.68,-412 252.16,-403.79 247,-392.88 259.68,-385 268.61,-379.45 278.38,-374.98 288.52,-371.38"/>
<polygon fill="black" stroke="black" points="289.9,-374.61 298.33,-368.19 287.74,-367.95 289.9,-374.61"/>
</g><g id="edge37" class="edge">
<title>n11-&gt;n3</title>
<path fill="none" stroke="black" d="M530.31,-257.09C541.78,-261.79 552.4,-268.24 561.2,-277 595.8,-311.44 546.38,-350.79 581.2,-385 590.26,-393.9 601.07,-400.52 612.75,-405.38"/>
<polygon fill="black" stroke="black" points="611.69,-408.72 622.29,-408.91 614.12,-402.16 611.69,-408.72"/>
</g>
<!-- n5&#45;&gt;n18 -->

<!-- n5&#45;&gt;n18 -->
<g id="edge28" class="edge">
<title>n5-&gt;n18</title>
<path fill="none" stroke="black" d="M212.28,-430.83C222.68,-426.51 232.23,-420.45 239.68,-412 295.55,-348.64 202.17,-284.87 259.68,-223 265.83,-216.39 272.99,-211.07 280.81,-206.8"/>
<polygon fill="black" stroke="black" points="282.39,-209.92 289.88,-202.42 279.35,-203.62 282.39,-209.92"/>
</g><g id="edge40" class="edge">
<title>n11-&gt;n19</title>
<path fill="none" stroke="black" d="M531.57,-256.88C542.66,-261.64 552.85,-268.17 561.2,-277 611.05,-329.7 531,-386.62 581.2,-439 587.5,-445.57 594.75,-450.93 602.62,-455.26"/>
<polygon fill="black" stroke="black" points="601.22,-458.48 611.74,-459.73 604.3,-452.19 601.22,-458.48"/>
</g>

</g>
</svg>