<?xml version="1.0" encoding="UTF-8" standalone="no"?>
<!DOCTYPE svg PUBLIC "-//W3C//DTD SVG 1.1//EN"
 "http://www.w3.org/Graphics/SVG/1.1/DTD/svg11.dtd">
<!-- Generated by graphviz version 2.43.0 (0)
 -->
<!-- Title: G Pages: 1 -->
<svg width="1277pt" height="705pt"
 viewBox="0.00 0.00 1277.00 705.00" xmlns="http://www.w3.org/2000/svg" xmlns:xlink="http://www.w3.org/1999/xlink">
<g id="graph0" class="graph" transform="scale(1 1) rotate(0) translate(4 701)">
<title>G</title>
<polygon fill="white" stroke="transparent" points="-4,4 -4,-701 1273,-701 1273,4 -4,4"/>
<!-- n2 -->
<g id="node1" class="node">
<title>n2</title>
<ellipse fill="none" stroke="red" cx="653.91" cy="-347.37" rx="27" ry="18"/>
<text text-anchor="middle" x="653.91" y="-345.47" font-family="Times,serif" font-size="8.00">all</text>
</g>
<!-- n8 -->
<g id="node2" class="node">
<title>n8</title>
<ellipse fill="none" stroke="red" cx="761.1" cy="-274.69" rx="53.77" ry="18"/>
<text text-anchor="middle" x="761.1" y="-272.79" font-family="Times,serif" font-size="8.00">bin/sFusedMM_pt.o</text>
</g>
<!-- n15 -->
<g id="node9" class="node">
<title>n15</title>
<ellipse fill="none" stroke="red" cx="511.26" cy="-460.06" rx="68.77" ry="18"/>
<text text-anchor="middle" x="511.26" y="-458.16" font-family="Times,serif" font-size="8.00">bin/xsFusedMMtime_fr_pt</text>
</g>
<!-- n8&#45;&gt;n15 -->
<g id="edge32" class="edge">
<title>n8&#45;&gt;n15</title>
<path fill="none" stroke="black" d="M738.93,-291.14C694.36,-324.21 593.79,-398.83 542.55,-436.85"/>
<polygon fill="black" stroke="black" points="540.41,-434.07 534.47,-442.84 544.58,-439.69 540.41,-434.07"/>
</g>
<!-- n3 -->
<g id="node10" class="node">
<title>n3</title>
<ellipse fill="none" stroke="red" cx="746.63" cy="-22.92" rx="73.35" ry="18"/>
<text text-anchor="middle" x="746.63" y="-21.02" font-family="Times,serif" font-size="8.00">bin/xsFusedMMtime_gcn_pt</text>
</g>
<!-- n8&#45;&gt;n3 -->
<g id="edge35" class="edge">
<title>n8&#45;&gt;n3</title>
<path fill="none" stroke="black" d="M760.06,-256.59C757.58,-213.32 751.27,-103.66 748.27,-51.43"/>
<polygon fill="black" stroke="black" points="751.75,-50.98 747.68,-41.2 744.76,-51.38 751.75,-50.98"/>
</g>
<!-- n19 -->
<g id="node11" class="node">
<title>n19</title>
<ellipse fill="none" stroke="red" cx="494.32" cy="-232.61" rx="82.5" ry="18"/>
<text text-anchor="middle" x="494.32" y="-230.71" font-family="Times,serif" font-size="8.00">bin/xsFusedMMtime_sigmoid_pt</text>
</g>
<!-- n8&#45;&gt;n19 -->
<g id="edge38" class="edge">
<title>n8&#45;&gt;n19</title>
<path fill="none" stroke="black" d="M712.17,-266.97C672.87,-260.78 616.96,-251.96 571.62,-244.81"/>
<polygon fill="black" stroke="black" points="571.95,-241.31 561.53,-243.21 570.86,-248.23 571.95,-241.31"/>
</g>
<!-- n13 -->
<g id="node12" class="node">
<title>n13</title>
<ellipse fill="none" stroke="red" cx="587.15" cy="-36.43" rx="78.06" ry="18"/>
<text text-anchor="middle" x="587.15" y="-34.53" font-family="Times,serif" font-size="8.00">bin/xsFusedMMtime_spmm_pt</text>
</g>
<!-- n8&#45;&gt;n13 -->
<g id="edge41" class="edge">
<title>n8&#45;&gt;n13</title>
<path fill="none" stroke="black" d="M748.31,-257.17C718.04,-215.71 641.87,-111.38 606.17,-62.48"/>
<polygon fill="black" stroke="black" points="608.92,-60.31 600.2,-54.3 603.27,-64.44 608.92,-60.31"/>
</g>
<!-- n17 -->
<g id="node13" class="node">
<title>n17</title>
<ellipse fill="none" stroke="red" cx="702.47" cy="-579.26" rx="74.11" ry="18"/>
<text text-anchor="middle" x="702.47" y="-577.36" font-family="Times,serif" font-size="8.00">bin/xsFusedMMtime_tdist_pt</text>
</g>
<!-- n8&#45;&gt;n17 -->
<g id="edge44" class="edge">
<title>n8&#45;&gt;n17</title>
<path fill="none" stroke="black" d="M757.61,-292.83C747.77,-343.93 719.77,-489.37 707.9,-551.05"/>
<polygon fill="black" stroke="black" points="704.4,-550.73 705.94,-561.21 711.27,-552.06 704.4,-550.73"/>
</g>
<!-- n16 -->
<g id="node3" class="node">
<title>n16</title>
<ellipse fill="none" stroke="red" cx="179.77" cy="-515.08" rx="69.54" ry="18"/>
<text text-anchor="middle" x="179.77" y="-513.18" font-family="Times,serif" font-size="8.00">bin/sFusedMMtime_fr_pt.o</text>
</g>
<!-- n16&#45;&gt;n15 -->
<g id="edge33" class="edge">
<title>n16&#45;&gt;n15</title>
<path fill="none" stroke="black" d="M238.65,-505.31C295.9,-495.81 382.79,-481.38 443.03,-471.39"/>
<polygon fill="black" stroke="black" points="443.91,-474.79 453.2,-469.7 442.76,-467.88 443.91,-474.79"/>
</g>
<!-- n24 -->
<g id="node14" class="node">
<title>n24</title>
<ellipse fill="none" stroke="red" cx="520.46" cy="-574.73" rx="77.29" ry="18"/>
<text text-anchor="middle" x="520.46" y="-572.83" font-family="Times,serif" font-size="8.00">bin/xsOptFusedMMtime_fr_pt</text>
</g>
<!-- n16&#45;&gt;n24 -->
<g id="edge47" class="edge">
<title>n16&#45;&gt;n24</title>
<path fill="none" stroke="black" d="M237.56,-525.2C295.74,-535.39 385.61,-551.12 448.4,-562.11"/>
<polygon fill="black" stroke="black" points="448.17,-565.63 458.63,-563.9 449.38,-558.73 448.17,-565.63"/>
</g>
<!-- n4 -->
<g id="node4" class="node">
<title>n4</title>
<ellipse fill="none" stroke="red" cx="400.48" cy="-38.92" rx="74.11" ry="18"/>
<text text-anchor="middle" x="400.48" y="-37.02" font-family="Times,serif" font-size="8.00">bin/sFusedMMtime_gcn_pt.o</text>
</g>
<!-- n4&#45;&gt;n3 -->
<g id="edge36" class="edge">
<title>n4&#45;&gt;n3</title>
<path fill="none" stroke="black" d="M473.89,-35.52C529.68,-32.94 606.43,-29.4 664.3,-26.72"/>
<polygon fill="black" stroke="black" points="664.69,-30.21 674.51,-26.25 664.36,-23.21 664.69,-30.21"/>
</g>
<!-- n21 -->
<g id="node15" class="node">
<title>n21</title>
<ellipse fill="none" stroke="red" cx="803.19" cy="-96.02" rx="81.86" ry="18"/>
<text text-anchor="middle" x="803.19" y="-94.12" font-family="Times,serif" font-size="8.00">bin/xsOptFusedMMtime_gcn_pt</text>
</g>
<!-- n4&#45;&gt;n21 -->
<g id="edge50" class="edge">
<title>n4&#45;&gt;n21</title>
<path fill="none" stroke="black" d="M464.74,-48.03C535.29,-58.03 648.62,-74.1 724.46,-84.86"/>
<polygon fill="black" stroke="black" points="724.05,-88.33 734.44,-86.27 725.03,-81.4 724.05,-88.33"/>
</g>
<!-- n20 -->
<g id="node5" class="node">
<title>n20</title>
<ellipse fill="none" stroke="red" cx="201.88" cy="-432.45" rx="83.27" ry="18"/>
<text text-anchor="middle" x="201.88" y="-430.55" font-family="Times,serif" font-size="8.00">bin/sFusedMMtime_sigmoid_pt.o</text>
</g>
<!-- n20&#45;&gt;n19 -->
<g id="edge39" class="edge">
<title>n20&#45;&gt;n19</title>
<path fill="none" stroke="black" d="M227.07,-415.24C279.76,-379.24 401.62,-295.96 460.83,-255.5"/>
<polygon fill="black" stroke="black" points="462.81,-258.39 469.09,-249.85 458.86,-252.61 462.81,-258.39"/>
</g>
<!-- n26 -->
<g id="node16" class="node">
<title>n26</title>
<ellipse fill="none" stroke="red" cx="541.21" cy="-652.3" rx="90.51" ry="18"/>
<text text-anchor="middle" x="541.21" y="-650.4" font-family="Times,serif" font-size="8.00">bin/xsOptFusedMMtime_sigmoid_pt</text>
</g>
<!-- n20&#45;&gt;n26 -->
<g id="edge53" class="edge">
<title>n20&#45;&gt;n26</title>
<path fill="none" stroke="black" d="M228.51,-449.7C289.07,-488.94 437.14,-584.88 505.52,-629.18"/>
<polygon fill="black" stroke="black" points="503.94,-632.33 514.24,-634.83 507.75,-626.45 503.94,-632.33"/>
</g>
<!-- n14 -->
<g id="node6" class="node">
<title>n14</title>
<ellipse fill="none" stroke="red" cx="238.69" cy="-18.38" rx="79.32" ry="18"/>
<text text-anchor="middle" x="238.69" y="-16.48" font-family="Times,serif" font-size="8.00">bin/sFusedMMtime_spmm_pt.o</text>
</g>
<!-- n14&#45;&gt;n13 -->
<g id="edge42" class="edge">
<title>n14&#45;&gt;n13</title>
<path fill="none" stroke="black" d="M316.46,-22.41C370.93,-25.23 443.79,-29 500.19,-31.93"/>
<polygon fill="black" stroke="black" points="500.35,-35.44 510.52,-32.46 500.72,-28.45 500.35,-35.44"/>
</g>
<!-- n23 -->
<g id="node17" class="node">
<title>n23</title>
<ellipse fill="none" stroke="red" cx="603.64" cy="-113.72" rx="86.57" ry="18"/>
<text text-anchor="middle" x="603.64" y="-111.82" font-family="Times,serif" font-size="8.00">bin/xsOptFusedMMtime_spmm_pt</text>
</g>
<!-- n14&#45;&gt;n23 -->
<g id="edge56" class="edge">
<title>n14&#45;&gt;n23</title>
<path fill="none" stroke="black" d="M290.98,-32.04C356.67,-49.2 469.35,-78.64 539.99,-97.09"/>
<polygon fill="black" stroke="black" points="539.11,-100.48 549.67,-99.62 540.88,-93.71 539.11,-100.48"/>
</g>
<!-- n18 -->
<g id="node7" class="node">
<title>n18</title>
<ellipse fill="none" stroke="red" cx="337.06" cy="-537.47" rx="76.02" ry="18"/>
<text text-anchor="middle" x="337.06" y="-535.57" font-family="Times,serif" font-size="8.00">bin/sFusedMMtime_tdist_pt.o</text>
</g>
<!-- n18&#45;&gt;n17 -->
<g id="edge45" class="edge">
<title>n18&#45;&gt;n17</title>
<path fill="none" stroke="black" d="M405.79,-545.33C468.09,-552.45 559.84,-562.95 624.79,-570.38"/>
<polygon fill="black" stroke="black" points="624.64,-573.88 634.97,-571.54 625.43,-566.93 624.64,-573.88"/>
</g>
<!-- n25 -->
<g id="node18" class="node">
<title>n25</title>
<ellipse fill="none" stroke="red" cx="730.51" cy="-679" rx="82.63" ry="18"/>
<text text-anchor="middle" x="730.51" y="-677.1" font-family="Times,serif" font-size="8.00">bin/xsOptFusedMMtime_tdist_pt</text>
</g>
<!-- n18&#45;&gt;n25 -->
<g id="edge59" class="edge">
<title>n18&#45;&gt;n25</title>
<path fill="none" stroke="black" d="M379.16,-552.61C451.4,-578.6 598.8,-631.62 677.77,-660.02"/>
<polygon fill="black" stroke="black" points="676.92,-663.44 687.51,-663.53 679.29,-656.85 676.92,-663.44"/>
</g>
<!-- n22 -->
<g id="node8" class="node">
<title>n22</title>
<ellipse fill="none" stroke="red" cx="749.39" cy="-412.02" rx="62.29" ry="18"/>
<text text-anchor="middle" x="749.39" y="-410.12" font-family="Times,serif" font-size="8.00">bin/sOptFusedMM_pt.o</text>
</g>
<!-- n22&#45;&gt;n24 -->
<g id="edge48" class="edge">
<title>n22&#45;&gt;n24</title>
<path fill="none" stroke="black" d="M725.76,-428.82C684.56,-458.09 599.58,-518.5 552.9,-551.67"/>
<polygon fill="black" stroke="black" points="550.78,-548.88 544.65,-557.53 554.83,-554.59 550.78,-548.88"/>
</g>
<!-- n22&#45;&gt;n21 -->
<g id="edge51" class="edge">
<title>n22&#45;&gt;n21</title>
<path fill="none" stroke="black" d="M752.52,-393.66C761.53,-340.74 787.6,-187.61 798.41,-124.12"/>
<polygon fill="black" stroke="black" points="801.9,-124.48 800.12,-114.03 794.99,-123.3 801.9,-124.48"/>
</g>
<!-- n22&#45;&gt;n26 -->
<g id="edge54" class="edge">
<title>n22&#45;&gt;n26</title>
<path fill="none" stroke="black" d="M734.09,-429.69C697.71,-471.68 605.94,-577.59 563.44,-626.64"/>
<polygon fill="black" stroke="black" points="560.73,-624.43 556.82,-634.28 566.02,-629.02 560.73,-624.43"/>
</g>
<!-- n22&#45;&gt;n23 -->
<g id="edge57" class="edge">
<title>n22&#45;&gt;n23</title>
<path fill="none" stroke="black" d="M740.5,-393.81C715.79,-343.24 646.24,-200.9 616.93,-140.92"/>
<polygon fill="black" stroke="black" points="619.96,-139.14 612.42,-131.69 613.67,-142.22 619.96,-139.14"/>
</g>
<!-- n22&#45;&gt;n25 -->
<g id="edge60" class="edge">
<title>n22&#45;&gt;n25</title>
<path fill="none" stroke="black" d="M748.1,-430.37C744.85,-476.2 736.38,-595.94 732.5,-650.8"/>
<polygon fill="black" stroke="black" points="729,-650.65 731.79,-660.87 735.99,-651.14 729,-650.65"/>
</g>
<!-- n15&#45;&gt;n2 -->
<g id="edge1" class="edge">
<title>n15&#45;&gt;n2</title>
<path fill="none" stroke="black" d="M532.92,-442.94C558.49,-422.75 600.96,-389.19 628.18,-367.69"/>
<polygon fill="black" stroke="black" points="630.43,-370.38 636.1,-361.43 626.09,-364.89 630.43,-370.38"/>
</g>
<!-- n3&#45;&gt;n2 -->
<g id="edge2" class="edge">
<title>n3&#45;&gt;n2</title>
<path fill="none" stroke="black" d="M741.38,-41.29C725.88,-95.51 680.28,-255.09 661.81,-319.72"/>
<polygon fill="black" stroke="black" points="658.37,-319.02 658.99,-329.6 665.1,-320.94 658.37,-319.02"/>
</g>
<!-- n19&#45;&gt;n2 -->
<g id="edge3" class="edge">
<title>n19&#45;&gt;n2</title>
<path fill="none" stroke="black" d="M518.56,-250.04C547.76,-271.04 596.68,-306.22 627.02,-328.04"/>
<polygon fill="black" stroke="black" points="625.26,-331.08 635.42,-334.08 629.35,-325.4 625.26,-331.08"/>
</g>
<!-- n13&#45;&gt;n2 -->
<g id="edge4" class="edge">
<title>n13&#45;&gt;n2</title>
<path fill="none" stroke="black" d="M591.03,-54.49C602.18,-106.44 634.41,-256.54 647.88,-319.28"/>
<polygon fill="black" stroke="black" points="644.5,-320.22 650.02,-329.26 651.34,-318.75 644.5,-320.22"/>
</g>
<!-- n17&#45;&gt;n2 -->
<g id="edge5" class="edge">
<title>n17&#45;&gt;n2</title>
<path fill="none" stroke="black" d="M698.66,-561.06C690.22,-520.76 669.9,-423.74 659.8,-375.54"/>
<polygon fill="black" stroke="black" points="663.17,-374.55 657.7,-365.48 656.32,-375.99 663.17,-374.55"/>
</g>
<!-- n24&#45;&gt;n2 -->
<g id="edge6" class="edge">
<title>n24&#45;&gt;n2</title>
<path fill="none" stroke="black" d="M530.93,-556.89C554.44,-516.83 611.49,-419.63 638.82,-373.07"/>
<polygon fill="black" stroke="black" points="641.98,-374.59 644.03,-364.2 635.95,-371.05 641.98,-374.59"/>
</g>
<!-- n21&#45;&gt;n2 -->
<g id="edge7" class="edge">
<title>n21&#45;&gt;n2</title>
<path fill="none" stroke="black" d="M792.45,-114.1C766.33,-158.07 699.41,-270.76 669.16,-321.69"/>
<polygon fill="black" stroke="black" points="666.05,-320.07 663.95,-330.45 672.07,-323.64 666.05,-320.07"/>
</g>
<!-- n26&#45;&gt;n2 -->
<g id="edge8" class="edge">
<title>n26&#45;&gt;n2</title>
<path fill="none" stroke="black" d="M547.92,-634.14C566.91,-582.75 621.12,-436.08 643.77,-374.8"/>
<polygon fill="black" stroke="black" points="647.19,-375.65 647.37,-365.05 640.62,-373.22 647.19,-375.65"/>
</g>
<!-- n23&#45;&gt;n2 -->
<g id="edge9" class="edge">
<title>n23&#45;&gt;n2</title>
<path fill="none" stroke="black" d="M607.59,-132.06C616.36,-172.85 637.54,-271.31 647.94,-319.65"/>
<polygon fill="black" stroke="black" points="644.52,-320.4 650.05,-329.44 651.37,-318.93 644.52,-320.4"/>
</g>
<!-- n25&#45;&gt;n2 -->
<g id="edge10" class="edge">
<title>n25&#45;&gt;n2</title>
<path fill="none" stroke="black" d="M726.28,-660.69C713.56,-605.64 675.6,-441.31 660.35,-375.29"/>
<polygon fill="black" stroke="black" points="663.69,-374.17 658.03,-365.21 656.87,-375.74 663.69,-374.17"/>
</g>
<!-- n9 -->
<g id="node19" class="node">
<title>n9</title>
<ellipse fill="none" stroke="forestgreen" cx="1032.4" cy="-409.09" rx="35.34" ry="18"/>
<text text-anchor="middle" x="1032.4" y="-407.19" font-family="Times,serif" font-size="8.00">fusedMM.c</text>
</g>
<!-- n9&#45;&gt;n8 -->
<g id="edge11" class="edge">
<title>n9&#45;&gt;n8</title>
<path fill="none" stroke="black" d="M1006.87,-396.45C959.27,-372.87 856.66,-322.03 800.24,-294.08"/>
<polygon fill="black" stroke="black" points="801.78,-290.94 791.27,-289.64 798.67,-297.21 801.78,-290.94"/>
</g>
<!-- n9&#45;&gt;n22 -->
<g id="edge29" class="edge">
<title>n9&#45;&gt;n22</title>
<path fill="none" stroke="black" d="M997.13,-409.46C953.54,-409.91 878.25,-410.69 822.08,-411.27"/>
<polygon fill="black" stroke="black" points="821.79,-407.77 811.83,-411.37 821.86,-414.77 821.79,-407.77"/>
</g>
<!-- n6 -->
<g id="node20" class="node">
<title>n6</title>
<ellipse fill="none" stroke="forestgreen" cx="416.19" cy="-304.27" rx="35.34" ry="18"/>
<text text-anchor="middle" x="416.19" y="-302.37" font-family="Times,serif" font-size="8.00">fusedMM.h</text>
</g>
<!-- n6&#45;&gt;n8 -->
<g id="edge12" class="edge">
<title>n6&#45;&gt;n8</title>
<path fill="none" stroke="black" d="M451.16,-301.27C509.11,-296.3 625.83,-286.29 698.33,-280.08"/>
<polygon fill="black" stroke="black" points="699.03,-283.53 708.7,-279.19 698.43,-276.55 699.03,-283.53"/>
</g>
<!-- n6&#45;&gt;n16 -->
<g id="edge14" class="edge">
<title>n6&#45;&gt;n16</title>
<path fill="none" stroke="black" d="M398.42,-320.12C357.42,-356.67 256.01,-447.1 207.06,-490.75"/>
<polygon fill="black" stroke="black" points="204.53,-488.32 199.39,-497.58 209.19,-493.54 204.53,-488.32"/>
</g>
<!-- n6&#45;&gt;n4 -->
<g id="edge17" class="edge">
<title>n6&#45;&gt;n4</title>
<path fill="none" stroke="black" d="M415.11,-286.03C412.41,-240.48 405.37,-121.46 402.14,-66.94"/>
<polygon fill="black" stroke="black" points="405.63,-66.71 401.55,-56.93 398.64,-67.12 405.63,-66.71"/>
</g>
<!-- n6&#45;&gt;n20 -->
<g id="edge20" class="edge">
<title>n6&#45;&gt;n20</title>
<path fill="none" stroke="black" d="M393.25,-317.99C356.38,-340.04 283.57,-383.59 239.16,-410.16"/>
<polygon fill="black" stroke="black" points="237.19,-407.26 230.41,-415.39 240.78,-413.26 237.19,-407.26"/>
</g>
<!-- n6&#45;&gt;n14 -->
<g id="edge23" class="edge">
<title>n6&#45;&gt;n14</title>
<path fill="none" stroke="black" d="M405.35,-286.82C375.34,-238.49 291.02,-102.67 255.16,-44.91"/>
<polygon fill="black" stroke="black" points="258.08,-42.98 249.84,-36.33 252.14,-46.68 258.08,-42.98"/>
</g>
<!-- n6&#45;&gt;n18 -->
<g id="edge26" class="edge">
<title>n6&#45;&gt;n18</title>
<path fill="none" stroke="black" d="M410.11,-322.18C396.36,-362.71 362.78,-461.65 346.38,-509.99"/>
<polygon fill="black" stroke="black" points="343.05,-508.9 343.16,-519.5 349.68,-511.15 343.05,-508.9"/>
</g>
<!-- n6&#45;&gt;n22 -->
<g id="edge30" class="edge">
<title>n6&#45;&gt;n22</title>
<path fill="none" stroke="black" d="M446.05,-313.93C502.96,-332.33 627.53,-372.61 698.06,-395.42"/>
<polygon fill="black" stroke="black" points="697.04,-398.77 707.64,-398.52 699.2,-392.11 697.04,-398.77"/>
</g>
<!-- n10 -->
<g id="node21" class="node">
<title>n10</title>
<ellipse fill="none" stroke="forestgreen" cx="1057.15" cy="-236.64" rx="55.04" ry="18"/>
<text text-anchor="middle" x="1057.15" y="-234.74" font-family="Times,serif" font-size="8.00">fusedMM_internal.h</text>
</g>
<!-- n10&#45;&gt;n8 -->
<g id="edge13" class="edge">
<title>n10&#45;&gt;n8</title>
<path fill="none" stroke="black" d="M1005.92,-243.23C954.77,-249.8 876.16,-259.9 821.88,-266.88"/>
<polygon fill="black" stroke="black" points="821.18,-263.44 811.71,-268.19 822.07,-270.39 821.18,-263.44"/>
</g>
<!-- n10&#45;&gt;n22 -->
<g id="edge31" class="edge">
<title>n10&#45;&gt;n22</title>
<path fill="none" stroke="black" d="M1029.57,-252.36C974.16,-283.93 849.31,-355.08 786.69,-390.77"/>
<polygon fill="black" stroke="black" points="784.87,-387.77 777.92,-395.76 788.34,-393.85 784.87,-387.77"/>
</g>
<!-- n7 -->
<g id="node22" class="node">
<title>n7</title>
<ellipse fill="none" stroke="forestgreen" cx="65.71" cy="-252.98" rx="65.6" ry="18"/>
<text text-anchor="middle" x="65.71" y="-251.08" font-family="Times,serif" font-size="8.00">kernels/include/kernels.h</text>
</g>
<!-- n7&#45;&gt;n16 -->
<g id="edge15" class="edge">
<title>n7&#45;&gt;n16</title>
<path fill="none" stroke="black" d="M73.55,-271C93.17,-316.07 144.47,-433.96 167.85,-487.69"/>
<polygon fill="black" stroke="black" points="164.68,-489.17 171.87,-496.94 171.09,-486.38 164.68,-489.17"/>
</g>
<!-- n7&#45;&gt;n4 -->
<g id="edge18" class="edge">
<title>n7&#45;&gt;n4</title>
<path fill="none" stroke="black" d="M91.7,-236.36C151.25,-198.29 297.59,-104.71 365.2,-61.48"/>
<polygon fill="black" stroke="black" points="367.27,-64.3 373.81,-55.97 363.5,-58.41 367.27,-64.3"/>
</g>
<!-- n7&#45;&gt;n20 -->
<g id="edge21" class="edge">
<title>n7&#45;&gt;n20</title>
<path fill="none" stroke="black" d="M79.27,-270.85C103.43,-302.69 154.04,-369.4 182.1,-406.37"/>
<polygon fill="black" stroke="black" points="179.55,-408.81 188.38,-414.66 185.13,-404.58 179.55,-408.81"/>
</g>
<!-- n7&#45;&gt;n14 -->
<g id="edge24" class="edge">
<title>n7&#45;&gt;n14</title>
<path fill="none" stroke="black" d="M79,-234.96C109.38,-193.75 184.05,-92.48 219.46,-44.46"/>
<polygon fill="black" stroke="black" points="222.48,-46.26 225.59,-36.14 216.84,-42.11 222.48,-46.26"/>
</g>
<!-- n7&#45;&gt;n18 -->
<g id="edge27" class="edge">
<title>n7&#45;&gt;n18</title>
<path fill="none" stroke="black" d="M82.69,-270.78C129.23,-319.57 258.98,-455.61 312.99,-512.23"/>
<polygon fill="black" stroke="black" points="310.65,-514.86 320.09,-519.68 315.72,-510.03 310.65,-514.86"/>
</g>
<!-- n11 -->
<g id="node23" class="node">
<title>n11</title>
<ellipse fill="none" stroke="red" cx="825.77" cy="-364.15" rx="77.92" ry="18"/>
<text text-anchor="middle" x="825.77" y="-362.25" font-family="Times,serif" font-size="8.00">kernels/lib/slibgfusedMM_pt.a</text>
</g>
<!-- n11&#45;&gt;n15 -->
<g id="edge34" class="edge">
<title>n11&#45;&gt;n15</title>
<path fill="none" stroke="black" d="M778.69,-378.51C721.71,-395.88 625.95,-425.08 565.82,-443.42"/>
<polygon fill="black" stroke="black" points="564.66,-440.12 556.12,-446.38 566.7,-446.81 564.66,-440.12"/>
</g>
<!-- n11&#45;&gt;n3 -->
<g id="edge37" class="edge">
<title>n11&#45;&gt;n3</title>
<path fill="none" stroke="black" d="M821.52,-345.8C808.44,-289.43 768.8,-118.48 753.11,-50.87"/>
<polygon fill="black" stroke="black" points="756.48,-49.89 750.81,-40.94 749.66,-51.47 756.48,-49.89"/>
</g>
<!-- n11&#45;&gt;n19 -->
<g id="edge40" class="edge">
<title>n11&#45;&gt;n19</title>
<path fill="none" stroke="black" d="M786.45,-348.54C725.81,-324.48 609.59,-278.36 543.48,-252.12"/>
<polygon fill="black" stroke="black" points="544.69,-248.84 534.11,-248.4 542.11,-255.34 544.69,-248.84"/>
</g>
<!-- n11&#45;&gt;n13 -->
<g id="edge43" class="edge">
<title>n11&#45;&gt;n13</title>
<path fill="none" stroke="black" d="M812.6,-346.06C772.76,-291.34 653.35,-127.35 606.41,-62.88"/>
<polygon fill="black" stroke="black" points="609,-60.49 600.28,-54.46 603.34,-64.61 609,-60.49"/>
</g>
<!-- n11&#45;&gt;n17 -->
<g id="edge46" class="edge">
<title>n11&#45;&gt;n17</title>
<path fill="none" stroke="black" d="M815.47,-382.12C793.8,-419.92 743.4,-507.84 717.88,-552.38"/>
<polygon fill="black" stroke="black" points="714.76,-550.77 712.83,-561.19 720.84,-554.25 714.76,-550.77"/>
</g>
<!-- n11&#45;&gt;n24 -->
<g id="edge49" class="edge">
<title>n11&#45;&gt;n24</title>
<path fill="none" stroke="black" d="M800.79,-381.38C746.08,-419.11 615.68,-509.05 553.95,-551.63"/>
<polygon fill="black" stroke="black" points="551.6,-548.99 545.36,-557.55 555.58,-554.76 551.6,-548.99"/>
</g>
<!-- n11&#45;&gt;n21 -->
<g id="edge52" class="edge">
<title>n11&#45;&gt;n21</title>
<path fill="none" stroke="black" d="M824.25,-346.14C820.41,-300.46 810.24,-179.78 805.58,-124.46"/>
<polygon fill="black" stroke="black" points="809.06,-123.98 804.73,-114.31 802.08,-124.56 809.06,-123.98"/>
</g>
<!-- n11&#45;&gt;n26 -->
<g id="edge55" class="edge">
<title>n11&#45;&gt;n26</title>
<path fill="none" stroke="black" d="M808.4,-381.74C759.78,-430.97 622.22,-570.27 565.81,-627.39"/>
<polygon fill="black" stroke="black" points="563.25,-625 558.71,-634.58 568.23,-629.92 563.25,-625"/>
</g>
<!-- n11&#45;&gt;n23 -->
<g id="edge58" class="edge">
<title>n11&#45;&gt;n23</title>
<path fill="none" stroke="black" d="M809.8,-346.14C770.89,-302.28 671.15,-189.82 626.2,-139.15"/>
<polygon fill="black" stroke="black" points="628.73,-136.73 619.47,-131.57 623.49,-141.37 628.73,-136.73"/>
</g>
<!-- n11&#45;&gt;n25 -->
<g id="edge61" class="edge">
<title>n11&#45;&gt;n25</title>
<path fill="none" stroke="black" d="M820.24,-382.44C804.29,-435.15 758.14,-587.65 738.99,-650.95"/>
<polygon fill="black" stroke="black" points="735.6,-650.07 736.06,-660.66 742.3,-652.1 735.6,-650.07"/>
</g>
<!-- n12 -->
<g id="node24" class="node">
<title>n12</title>
<ellipse fill="none" stroke="forestgreen" cx="1218.08" cy="-501.9" rx="50.47" ry="18"/>
<text text-anchor="middle" x="1218.08" y="-500" font-family="Times,serif" font-size="8.00">kernels/rungen.sh</text>
</g>
<!-- n12&#45;&gt;n11 -->
<g id="edge62" class="edge">
<title>n12&#45;&gt;n11</title>
<path fill="none" stroke="black" d="M1181.87,-489.19C1112.15,-464.71 959.01,-410.94 878.16,-382.54"/>
<polygon fill="black" stroke="black" points="879.26,-379.22 868.67,-379.21 876.94,-385.83 879.26,-379.22"/>
</g>
<!-- n5 -->
<g id="node25" class="node">
<title>n5</title>
<ellipse fill="none" stroke="forestgreen" cx="200.21" cy="-238.94" rx="60.89" ry="18"/>
<text text-anchor="middle" x="200.21" y="-237.04" font-family="Times,serif" font-size="8.00">test/fusedMMtime.cpp</text>
</g>
<!-- n5&#45;&gt;n16 -->
<g id="edge16" class="edge">
<title>n5&#45;&gt;n16</title>
<path fill="none" stroke="black" d="M198.87,-257.06C195.39,-304.07 186.05,-430.2 181.86,-486.85"/>
<polygon fill="black" stroke="black" points="178.36,-486.67 181.12,-496.9 185.34,-487.18 178.36,-486.67"/>
</g>
<!-- n5&#45;&gt;n4 -->
<g id="edge19" class="edge">
<title>n5&#45;&gt;n4</title>
<path fill="none" stroke="black" d="M217.63,-221.54C253.29,-185.93 334.68,-104.64 375.77,-63.59"/>
<polygon fill="black" stroke="black" points="378.35,-65.96 382.95,-56.42 373.41,-61.01 378.35,-65.96"/>
</g>
<!-- n5&#45;&gt;n20 -->
<g id="edge22" class="edge">
<title>n5&#45;&gt;n20</title>
<path fill="none" stroke="black" d="M200.37,-257.15C200.66,-291.02 201.29,-363.92 201.64,-404.23"/>
<polygon fill="black" stroke="black" points="198.14,-404.47 201.73,-414.43 205.14,-404.4 198.14,-404.47"/>
</g>
<!-- n5&#45;&gt;n14 -->
<g id="edge25" class="edge">
<title>n5&#45;&gt;n14</title>
<path fill="none" stroke="black" d="M203.36,-220.89C210.07,-182.43 225.82,-92.15 233.83,-46.24"/>
<polygon fill="black" stroke="black" points="237.28,-46.82 235.55,-36.37 230.38,-45.62 237.28,-46.82"/>
</g>
<!-- n5&#45;&gt;n18 -->
<g id="edge28" class="edge">
<title>n5&#45;&gt;n18</title>
<path fill="none" stroke="black" d="M208.56,-257.17C231.76,-307.77 297.06,-450.22 324.58,-510.25"/>
<polygon fill="black" stroke="black" points="321.46,-511.85 328.81,-519.48 327.83,-508.93 321.46,-511.85"/>
</g>
</g>
</svg>
