<svg width="622" height="548" viewBox="0 0 1012.86 892" xmlns="http://www.w3.org/2000/svg" xmlns:xlink="http://www.w3.org/1999/xlink">
<g id="graph0" class="graph" transform="translate(4,888) scale(1)">
<title>G</title>
<polygon fill="white" stroke="transparent" points="-4,4 -4,-888 1008.86,-888 1008.86,4 -4,4"/>
<!-- n2 --><g id="clust2" class="cluster">
<title>cluster_mid</title>
<polygon fill="none" stroke="black" points="259.68,-8 259.68,-546 906.86,-546 906.86,-8 259.68,-8"/>
</g>
<g id="node1" class="node">
<title>n2</title>
<ellipse fill="none" stroke="red" cx="961.86" cy="-277" rx="27" ry="18"/>
<text text-anchor="middle" x="961.86" y="-272.8" font-family="Times,serif" font-size="14">all</text>
</g><g id="clust3" class="cluster">
<title>cluster_left</title>
<polygon fill="none" stroke="black" points="8,-554 8,-876 548.84,-876 548.84,-554 8,-554"/>
</g>
<!-- n8 --><g id="clust1" class="cluster">
<title>cluster_right</title>
<polygon fill="none" stroke="black" points="926.86,-251 926.86,-303 996.86,-303 996.86,-251 926.86,-251"/>
</g>
<g id="node2" class="node">
<title>n8</title>
<ellipse fill="none" stroke="red" cx="410.44" cy="-196" rx="89.79" ry="18"/>
<text text-anchor="middle" x="410.44" y="-191.8" font-family="Times,serif" font-size="14">bin/sFusedMM_pt.o</text>
</g>
<!-- n15 -->
<g id="node9" class="node">
<title>n15</title>
<ellipse fill="none" stroke="red" cx="744.03" cy="-358" rx="115.81" ry="18"/>
<text text-anchor="middle" x="744.03" y="-353.8" font-family="Times,serif" font-size="14">bin/xsFusedMMtime_fr_pt</text>
</g>
<!-- n8&#45;&gt;n15 -->
<g id="edge32" class="edge">
<title>n8-&gt;n15</title>
<path fill="none" stroke="black" d="M499.67,-198.19C519.1,-202.41 538.3,-209.97 553.2,-223 591.28,-256.31 550.88,-297.97 589.2,-331 598.84,-339.31 610.12,-345.48 622.11,-350.02"/>
<polygon fill="black" stroke="black" points="621.27,-353.43 631.87,-353.32 623.51,-346.8 621.27,-353.43"/>
</g>
<!-- n3 -->
<g id="node10" class="node">
<title>n3</title>
<ellipse fill="none" stroke="red" cx="744.03" cy="-250" rx="123.33" ry="18"/>
<text text-anchor="middle" x="744.03" y="-245.8" font-family="Times,serif" font-size="14">bin/xsFusedMMtime_gcn_pt</text>
</g>
<!-- n8&#45;&gt;n3 -->
<g id="edge35" class="edge">
<title>n8-&gt;n3</title>
<path fill="none" stroke="black" d="M480.55,-207.25C530.04,-215.31 597.21,-226.25 651.21,-235.05"/>
<polygon fill="black" stroke="black" points="650.7,-238.51 661.13,-236.66 651.82,-231.6 650.7,-238.51"/>
</g>
<!-- n19 -->
<g id="node11" class="node">
<title>n19</title>
<ellipse fill="none" stroke="red" cx="744.03" cy="-142" rx="140.19" ry="18"/>
<text text-anchor="middle" x="744.03" y="-137.8" font-family="Times,serif" font-size="14">bin/xsFusedMMtime_sigmoid_pt</text>
</g>
<!-- n8&#45;&gt;n19 -->
<g id="edge38" class="edge">
<title>n8-&gt;n19</title>
<path fill="none" stroke="black" d="M480.55,-184.75C528.52,-176.93 593.08,-166.42 646.17,-157.77"/>
<polygon fill="black" stroke="black" points="646.97,-161.19 656.28,-156.13 645.85,-154.28 646.97,-161.19"/>
</g>
<!-- n13 -->
<g id="node12" class="node">
<title>n13</title>
<ellipse fill="none" stroke="red" cx="744.03" cy="-34" rx="132.67" ry="18"/>
<text text-anchor="middle" x="744.03" y="-29.8" font-family="Times,serif" font-size="14">bin/xsFusedMMtime_spmm_pt</text>
</g>
<!-- n8&#45;&gt;n13 -->
<g id="edge41" class="edge">
<title>n8-&gt;n13</title>
<path fill="none" stroke="black" d="M428.75,-178.18C458.55,-148.66 522.79,-89.99 589.2,-61 601.9,-55.46 615.66,-51.05 629.54,-47.55"/>
<polygon fill="black" stroke="black" points="630.74,-50.86 639.67,-45.15 629.13,-44.05 630.74,-50.86"/>
</g>
<!-- n17 -->
<g id="node13" class="node">
<title>n17</title>
<ellipse fill="none" stroke="red" cx="744.03" cy="-466" rx="125.72" ry="18"/>
<text text-anchor="middle" x="744.03" y="-461.8" font-family="Times,serif" font-size="14">bin/xsFusedMMtime_tdist_pt</text>
</g>
<!-- n8&#45;&gt;n17 -->
<g id="edge44" class="edge">
<title>n8-&gt;n17</title>
<path fill="none" stroke="black" d="M500.09,-196.33C519.86,-200.55 539.11,-208.58 553.2,-223 621.22,-292.61 520.68,-369.89 589.2,-439 596.43,-446.29 604.89,-452.02 614.05,-456.48"/>
<polygon fill="black" stroke="black" points="612.87,-459.78 623.43,-460.54 615.64,-453.36 612.87,-459.78"/>
</g>
<!-- n16 -->
<g id="node3" class="node">
<title>n16</title>
<ellipse fill="none" stroke="red" cx="410.44" cy="-466" rx="118.14" ry="18"/>
<text text-anchor="middle" x="410.44" y="-461.8" font-family="Times,serif" font-size="14">bin/sFusedMMtime_fr_pt.o</text>
</g>
<!-- n16&#45;&gt;n15 -->
<g id="edge33" class="edge">
<title>n16-&gt;n15</title>
<path fill="none" stroke="black" d="M512.93,-456.94C527.19,-452.81 541.09,-447.03 553.2,-439 577.24,-423.06 565.05,-400.77 589.2,-385 600.71,-377.49 613.7,-371.89 627.12,-367.75"/>
<polygon fill="black" stroke="black" points="628.28,-371.06 636.96,-364.98 626.38,-364.32 628.28,-371.06"/>
</g>
<!-- n24 -->
<g id="node14" class="node">
<title>n24</title>
<ellipse fill="none" stroke="red" cx="744.03" cy="-412" rx="130.28" ry="18"/>
<text text-anchor="middle" x="744.03" y="-407.8" font-family="Times,serif" font-size="14">bin/xsOptFusedMMtime_fr_pt</text>
</g>
<!-- n16&#45;&gt;n24 -->
<g id="edge47" class="edge">
<title>n16-&gt;n24</title>
<path fill="none" stroke="black" d="M491.71,-452.93C539.14,-445.2 599.43,-435.39 649.07,-427.3"/>
<polygon fill="black" stroke="black" points="649.86,-430.72 659.17,-425.66 648.73,-423.81 649.86,-430.72"/>
</g>
<!-- n4 -->
<g id="node4" class="node">
<title>n4</title>
<ellipse fill="none" stroke="red" cx="410.44" cy="-412" rx="125.66" ry="18"/>
<text text-anchor="middle" x="410.44" y="-407.8" font-family="Times,serif" font-size="14">bin/sFusedMMtime_gcn_pt.o</text>
</g>
<!-- n4&#45;&gt;n3 -->
<g id="edge36" class="edge">
<title>n4-&gt;n3</title>
<path fill="none" stroke="black" d="M521.48,-403.44C533.06,-399.06 543.96,-393.08 553.2,-385 591.28,-351.69 550.88,-310.03 589.2,-277 597.78,-269.61 607.65,-263.91 618.17,-259.54"/>
<polygon fill="black" stroke="black" points="619.41,-262.82 627.56,-256.05 616.97,-256.26 619.41,-262.82"/>
</g>
<!-- n21 -->
<g id="node15" class="node">
<title>n21</title>
<ellipse fill="none" stroke="red" cx="744.03" cy="-304" rx="137.8" ry="18"/>
<text text-anchor="middle" x="744.03" y="-299.8" font-family="Times,serif" font-size="14">bin/xsOptFusedMMtime_gcn_pt</text>
</g>
<!-- n4&#45;&gt;n21 -->
<g id="edge50" class="edge">
<title>n4-&gt;n21</title>
<path fill="none" stroke="black" d="M515.88,-402.06C529.1,-398 541.93,-392.48 553.2,-385 577.24,-369.06 565.05,-346.77 589.2,-331 597.98,-325.27 607.61,-320.66 617.64,-316.95"/>
<polygon fill="black" stroke="black" points="619.01,-320.19 627.36,-313.67 616.77,-313.55 619.01,-320.19"/>
</g>
<!-- n20 -->
<g id="node5" class="node">
<title>n20</title>
<ellipse fill="none" stroke="red" cx="410.44" cy="-358" rx="142.52" ry="18"/>
<text text-anchor="middle" x="410.44" y="-353.8" font-family="Times,serif" font-size="14">bin/sFusedMMtime_sigmoid_pt.o</text>
</g>
<!-- n20&#45;&gt;n19 -->
<g id="edge39" class="edge">
<title>n20-&gt;n19</title>
<path fill="none" stroke="black" d="M528.54,-347.67C537.6,-343.43 546.01,-337.98 553.2,-331 606.14,-279.65 535.89,-219.97 589.2,-169 595.13,-163.33 601.8,-158.63 608.96,-154.74"/>
<polygon fill="black" stroke="black" points="610.79,-157.74 618.27,-150.24 607.74,-151.44 610.79,-157.74"/>
</g>
<!-- n26 -->
<g id="node16" class="node">
<title>n26</title>
<ellipse fill="none" stroke="red" cx="744.03" cy="-196" rx="154.66" ry="18"/>
<text text-anchor="middle" x="744.03" y="-191.8" font-family="Times,serif" font-size="14">bin/xsOptFusedMMtime_sigmoid_pt</text>
</g>
<!-- n20&#45;&gt;n26 -->
<g id="edge53" class="edge">
<title>n20-&gt;n26</title>
<path fill="none" stroke="black" d="M526.4,-347.46C536.14,-343.31 545.28,-337.93 553.2,-331 591.28,-297.69 550.88,-256.03 589.2,-223 594.78,-218.19 600.9,-214.1 607.4,-210.63"/>
<polygon fill="black" stroke="black" points="608.97,-213.76 616.46,-206.27 605.94,-207.45 608.97,-213.76"/>
</g>
<!-- n14 -->
<g id="node6" class="node">
<title>n14</title>
<ellipse fill="none" stroke="red" cx="410.44" cy="-250" rx="135.49" ry="18"/>
<text text-anchor="middle" x="410.44" y="-245.8" font-family="Times,serif" font-size="14">bin/sFusedMMtime_spmm_pt.o</text>
</g>
<!-- n14&#45;&gt;n13 -->
<g id="edge42" class="edge">
<title>n14-&gt;n13</title>
<path fill="none" stroke="black" d="M526.49,-240.61C536.33,-236.24 545.47,-230.5 553.2,-223 606.14,-171.65 535.89,-111.97 589.2,-61 595.97,-54.53 603.7,-49.32 612.03,-45.14"/>
<polygon fill="black" stroke="black" points="613.58,-48.28 621.27,-40.99 610.71,-41.89 613.58,-48.28"/>
</g>
<!-- n23 -->
<g id="node17" class="node">
<title>n23</title>
<ellipse fill="none" stroke="red" cx="744.03" cy="-88" rx="147.14" ry="18"/>
<text text-anchor="middle" x="744.03" y="-83.8" font-family="Times,serif" font-size="14">bin/xsOptFusedMMtime_spmm_pt</text>
</g>
<!-- n14&#45;&gt;n23 -->
<g id="edge56" class="edge">
<title>n14-&gt;n23</title>
<path fill="none" stroke="black" d="M524.66,-240.19C535.05,-235.94 544.81,-230.34 553.2,-223 591.28,-189.69 550.88,-148.03 589.2,-115 595.27,-109.77 601.98,-105.39 609.11,-101.73"/>
<polygon fill="black" stroke="black" points="610.73,-104.84 618.35,-97.47 607.8,-98.48 610.73,-104.84"/>
</g>
<!-- n18 -->
<g id="node7" class="node">
<title>n18</title>
<ellipse fill="none" stroke="red" cx="410.44" cy="-520" rx="128.05" ry="18"/>
<text text-anchor="middle" x="410.44" y="-515.8" font-family="Times,serif" font-size="14">bin/sFusedMMtime_tdist_pt.o</text>
</g>
<!-- n18&#45;&gt;n17 -->
<g id="edge45" class="edge">
<title>n18-&gt;n17</title>
<path fill="none" stroke="black" d="M495.12,-506.37C542.41,-498.67 601.64,-489.03 650.34,-481.1"/>
<polygon fill="black" stroke="black" points="650.94,-484.54 660.25,-479.48 649.81,-477.63 650.94,-484.54"/>
</g>
<!-- n25 -->
<g id="node18" class="node">
<title>n25</title>
<ellipse fill="none" stroke="red" cx="744.03" cy="-520" rx="140.19" ry="18"/>
<text text-anchor="middle" x="744.03" y="-515.8" font-family="Times,serif" font-size="14">bin/xsOptFusedMMtime_tdist_pt</text>
</g>
<!-- n18&#45;&gt;n25 -->
<g id="edge59" class="edge">
<title>n18-&gt;n25</title>
<path fill="none" stroke="black" d="M539.17,-520C556.95,-520 575.34,-520 593.48,-520"/>
<polygon fill="black" stroke="black" points="593.52,-523.5 603.52,-520 593.52,-516.5 593.52,-523.5"/>
</g>
<!-- n22 -->
<g id="node8" class="node">
<title>n22</title>
<ellipse fill="none" stroke="red" cx="410.44" cy="-304" rx="104.26" ry="18"/>
<text text-anchor="middle" x="410.44" y="-299.8" font-family="Times,serif" font-size="14">bin/sOptFusedMM_pt.o</text>
</g>
<!-- n22&#45;&gt;n24 -->
<g id="edge48" class="edge">
<title>n22-&gt;n24</title>
<path fill="none" stroke="black" d="M506.28,-311.25C522.83,-315.45 539.21,-321.72 553.2,-331 577.24,-346.94 565.05,-369.23 589.2,-385 598.77,-391.25 609.36,-396.17 620.38,-400.03"/>
<polygon fill="black" stroke="black" points="619.56,-403.45 630.15,-403.16 621.69,-396.78 619.56,-403.45"/>
</g>
<!-- n22&#45;&gt;n21 -->
<g id="edge51" class="edge">
<title>n22-&gt;n21</title>
<path fill="none" stroke="black" d="M514.99,-304C540.72,-304 568.78,-304 596.15,-304"/>
<polygon fill="black" stroke="black" points="596.19,-307.5 606.19,-304 596.19,-300.5 596.19,-307.5"/>
</g>
<!-- n22&#45;&gt;n26 -->
<g id="edge54" class="edge">
<title>n22-&gt;n26</title>
<path fill="none" stroke="black" d="M506.28,-296.75C522.83,-292.55 539.21,-286.28 553.2,-277 577.24,-261.06 565.05,-238.77 589.2,-223 596.62,-218.15 604.66,-214.11 613.03,-210.73"/>
<polygon fill="black" stroke="black" points="614.44,-213.94 622.61,-207.2 612.02,-207.37 614.44,-213.94"/>
</g>
<!-- n22&#45;&gt;n23 -->
<g id="edge57" class="edge">
<title>n22-&gt;n23</title>
<path fill="none" stroke="black" d="M511.99,-299.95C527.31,-295.32 541.78,-288.08 553.2,-277 606.14,-225.65 535.89,-165.97 589.2,-115 594.66,-109.78 600.75,-105.38 607.27,-101.68"/>
<polygon fill="black" stroke="black" points="609.06,-104.69 616.41,-97.05 605.9,-98.45 609.06,-104.69"/>
</g>
<!-- n22&#45;&gt;n25 -->
<g id="edge60" class="edge">
<title>n22-&gt;n25</title>
<path fill="none" stroke="black" d="M511.99,-308.05C527.31,-312.68 541.78,-319.92 553.2,-331 606.14,-382.35 535.89,-442.03 589.2,-493 595.13,-498.67 601.8,-503.37 608.96,-507.26"/>
<polygon fill="black" stroke="black" points="607.74,-510.56 618.27,-511.76 610.79,-504.26 607.74,-510.56"/>
</g>
<!-- n15&#45;&gt;n2 -->
<g id="edge1" class="edge">
<title>n15-&gt;n2</title>
<path fill="none" stroke="black" d="M849.1,-350.4C869,-346.28 889.13,-340.13 906.86,-331 920.67,-323.89 933.15,-311.98 942.62,-301.15"/>
<polygon fill="black" stroke="black" points="945.55,-303.11 949.25,-293.18 940.17,-298.63 945.55,-303.11"/>
</g>
<!-- n3&#45;&gt;n2 -->
<g id="edge2" class="edge">
<title>n3-&gt;n2</title>
<path fill="none" stroke="black" d="M838.13,-261.65C868.94,-265.5 901.39,-269.56 925.18,-272.54"/>
<polygon fill="black" stroke="black" points="924.78,-276.01 935.14,-273.78 925.65,-269.07 924.78,-276.01"/>
</g>
<!-- n19&#45;&gt;n2 -->
<g id="edge3" class="edge">
<title>n19-&gt;n2</title>
<path fill="none" stroke="black" d="M869.32,-150.14C882.78,-154.6 895.63,-160.71 906.86,-169 933.12,-188.4 947.42,-224.17 954.58,-249.21"/>
<polygon fill="black" stroke="black" points="951.29,-250.44 957.23,-259.21 958.06,-248.64 951.29,-250.44"/>
</g>
<!-- n13&#45;&gt;n2 -->
<g id="edge4" class="edge">
<title>n13-&gt;n2</title>
<path fill="none" stroke="black" d="M870.43,-39.54C883.85,-44.42 896.4,-51.34 906.86,-61 934.29,-86.33 951.07,-196.44 957.66,-248.95"/>
<polygon fill="black" stroke="black" points="954.19,-249.43 958.87,-258.93 961.14,-248.58 954.19,-249.43"/>
</g>
<!-- n17&#45;&gt;n2 -->
<g id="edge5" class="edge">
<title>n17-&gt;n2</title>
<path fill="none" stroke="black" d="M865.64,-461.03C880.69,-456.23 894.95,-449.18 906.86,-439 946.35,-405.25 957.08,-341.82 959.92,-305.14"/>
<polygon fill="black" stroke="black" points="963.41,-305.31 960.55,-295.11 956.43,-304.87 963.41,-305.31"/>
</g>
<!-- n24&#45;&gt;n2 -->
<g id="edge6" class="edge">
<title>n24-&gt;n2</title>
<path fill="none" stroke="black" d="M865.19,-405.17C880.14,-400.62 894.49,-394.14 906.86,-385 933.12,-365.6 947.42,-329.83 954.58,-304.79"/>
<polygon fill="black" stroke="black" points="958.06,-305.36 957.23,-294.79 951.29,-303.56 958.06,-305.36"/>
</g>
<!-- n21&#45;&gt;n2 -->
<g id="edge7" class="edge">
<title>n21-&gt;n2</title>
<path fill="none" stroke="black" d="M844.1,-291.61C872.99,-287.99 902.73,-284.27 924.97,-281.49"/>
<polygon fill="black" stroke="black" points="925.45,-284.96 934.94,-280.24 924.58,-278.01 925.45,-284.96"/>
</g>
<!-- n26&#45;&gt;n2 -->
<g id="edge8" class="edge">
<title>n26-&gt;n2</title>
<path fill="none" stroke="black" d="M864.88,-207.31C879.47,-211.18 893.82,-216.29 906.86,-223 920.67,-230.11 933.15,-242.02 942.62,-252.85"/>
<polygon fill="black" stroke="black" points="940.17,-255.37 949.25,-260.82 945.55,-250.89 940.17,-255.37"/>
</g>
<!-- n23&#45;&gt;n2 -->
<g id="edge9" class="edge">
<title>n23-&gt;n2</title>
<path fill="none" stroke="black" d="M874.96,-96.29C886.55,-100.86 897.44,-106.95 906.86,-115 946.35,-148.75 957.08,-212.18 959.92,-248.86"/>
<polygon fill="black" stroke="black" points="956.43,-249.13 960.55,-258.89 963.41,-248.69 956.43,-249.13"/>
</g>
<!-- n25&#45;&gt;n2 -->
<g id="edge10" class="edge">
<title>n25-&gt;n2</title>
<path fill="none" stroke="black" d="M874.03,-513.09C886.09,-508.31 897.34,-501.79 906.86,-493 934.29,-467.67 951.07,-357.56 957.66,-305.05"/>
<polygon fill="black" stroke="black" points="961.14,-305.42 958.87,-295.07 954.19,-304.57 961.14,-305.42"/>
</g>
<!-- n9 -->
<g id="node19" class="node">
<title>n9</title>
<ellipse fill="none" stroke="forestgreen" cx="123.84" cy="-634" rx="55.65" ry="18"/>
<text text-anchor="middle" x="123.84" y="-629.8" font-family="Times,serif" font-size="14">fusedMM.c</text>
</g>
<!-- n9&#45;&gt;n8 -->
<g id="edge11" class="edge">
<title>n9-&gt;n8</title>
<path fill="none" stroke="black" d="M179.59,-632.87C198.86,-629.56 218.9,-622.24 231.68,-607 286.67,-541.45 202.46,-286.61 259.68,-223 273.21,-207.96 292.04,-199.5 311.8,-195.04"/>
<polygon fill="black" stroke="black" points="312.71,-198.42 321.87,-193.1 311.39,-191.55 312.71,-198.42"/>
</g>
<!-- n9&#45;&gt;n22 -->
<g id="edge29" class="edge">
<title>n9-&gt;n22</title>
<path fill="none" stroke="black" d="M179.64,-632.63C198.8,-629.27 218.74,-621.99 231.68,-607 271.97,-560.34 217.81,-376.24 259.68,-331 269.74,-320.13 282.58,-312.73 296.49,-307.79"/>
<polygon fill="black" stroke="black" points="297.76,-311.06 306.28,-304.76 295.69,-304.38 297.76,-311.06"/>
</g>
<!-- n6 -->
<g id="node20" class="node">
<title>n6</title>
<ellipse fill="none" stroke="forestgreen" cx="123.84" cy="-688" rx="56.24" ry="18"/>
<text text-anchor="middle" x="123.84" y="-683.8" font-family="Times,serif" font-size="14">fusedMM.h</text>
</g>
<!-- n6&#45;&gt;n8 -->
<g id="edge12" class="edge">
<title>n6-&gt;n8</title>
<path fill="none" stroke="black" d="M180.21,-686.83C199.33,-683.48 219.09,-676.15 231.68,-661 294.03,-586 194.78,-295.8 259.68,-223 273.14,-207.9 291.95,-199.42 311.7,-194.95"/>
<polygon fill="black" stroke="black" points="312.61,-198.34 321.77,-193.01 311.29,-191.46 312.61,-198.34"/>
</g>
<!-- n6&#45;&gt;n16 -->
<g id="edge14" class="edge">
<title>n6-&gt;n16</title>
<path fill="none" stroke="black" d="M179.96,-686.03C198.82,-682.56 218.46,-675.36 231.68,-661 282.96,-605.32 206.51,-546.88 259.68,-493 267.5,-485.08 276.79,-479.04 286.87,-474.47"/>
<polygon fill="black" stroke="black" points="288.35,-477.64 296.33,-470.67 285.74,-471.15 288.35,-477.64"/>
</g>
<!-- n6&#45;&gt;n4 -->
<g id="edge17" class="edge">
<title>n6-&gt;n4</title>
<path fill="none" stroke="black" d="M180,-686.36C198.97,-682.94 218.69,-675.69 231.68,-661 297.58,-586.52 191.25,-511.16 259.68,-439 266.23,-432.1 273.89,-426.61 282.22,-422.26"/>
<polygon fill="black" stroke="black" points="283.9,-425.35 291.52,-417.99 280.97,-418.99 283.9,-425.35"/>
</g>
<!-- n6&#45;&gt;n20 -->
<g id="edge20" class="edge">
<title>n6-&gt;n20</title>
<path fill="none" stroke="black" d="M180.19,-686.53C199.19,-683.13 218.87,-675.84 231.68,-661 271.97,-614.34 217.81,-430.24 259.68,-385 264.51,-379.79 269.97,-375.38 275.88,-371.65"/>
<polygon fill="black" stroke="black" points="277.8,-374.58 284.84,-366.66 274.4,-368.47 277.8,-374.58"/>
</g>
<!-- n6&#45;&gt;n14 -->
<g id="edge23" class="edge">
<title>n6-&gt;n14</title>
<path fill="none" stroke="black" d="M180.14,-686.77C199.25,-683.42 219.02,-676.1 231.68,-661 286.67,-595.45 202.46,-340.61 259.68,-277 264.91,-271.19 270.92,-266.37 277.47,-262.37"/>
<polygon fill="black" stroke="black" points="279.55,-265.23 286.72,-257.43 276.25,-259.06 279.55,-265.23"/>
</g>
<!-- n6&#45;&gt;n18 -->
<g id="edge26" class="edge">
<title>n6-&gt;n18</title>
<path fill="none" stroke="black" d="M179.61,-685.37C198.32,-681.82 217.96,-674.73 231.68,-661 267.65,-625.02 222.83,-585.08 259.68,-550 267.55,-542.51 276.73,-536.65 286.61,-532.09"/>
<polygon fill="black" stroke="black" points="287.96,-535.32 295.86,-528.26 285.28,-528.85 287.96,-535.32"/>
</g>
<!-- n6&#45;&gt;n22 -->
<g id="edge30" class="edge">
<title>n6-&gt;n22</title>
<path fill="none" stroke="black" d="M180.32,-686.64C199.33,-683.26 218.99,-675.95 231.68,-661 279.32,-604.9 210.14,-385.42 259.68,-331 269.65,-320.05 282.44,-312.6 296.33,-307.64"/>
<polygon fill="black" stroke="black" points="297.6,-310.91 306.1,-304.6 295.51,-304.23 297.6,-310.91"/>
</g>
<!-- n10 -->
<g id="node21" class="node">
<title>n10</title>
<ellipse fill="none" stroke="forestgreen" cx="123.84" cy="-580" rx="90.88" ry="18"/>
<text text-anchor="middle" x="123.84" y="-575.8" font-family="Times,serif" font-size="14">fusedMM_internal.h</text>
</g>
<!-- n10&#45;&gt;n8 -->
<g id="edge13" class="edge">
<title>n10-&gt;n8</title>
<path fill="none" stroke="black" d="M125.74,-561.65C129.7,-502.23 150.7,-313.69 259.68,-223 274.14,-210.97 292.14,-203.54 310.6,-199.09"/>
<polygon fill="black" stroke="black" points="311.52,-202.47 320.58,-196.96 310.07,-195.62 311.52,-202.47"/>
</g>
<!-- n10&#45;&gt;n22 -->
<g id="edge31" class="edge">
<title>n10-&gt;n22</title>
<path fill="none" stroke="black" d="M128.87,-562.01C140.32,-515.42 177.64,-390.37 259.68,-331 271.68,-322.32 285.61,-316.14 300.04,-311.79"/>
<polygon fill="black" stroke="black" points="301.36,-315.06 310.1,-309.07 299.53,-308.31 301.36,-315.06"/>
</g>
<!-- n7 -->
<g id="node22" class="node">
<title>n7</title>
<ellipse fill="none" stroke="forestgreen" cx="123.84" cy="-742" rx="107.68" ry="18"/>
<text text-anchor="middle" x="123.84" y="-737.8" font-family="Times,serif" font-size="14">kernels/include/kernels.h</text>
</g>
<!-- n7&#45;&gt;n16 -->
<g id="edge15" class="edge">
<title>n7-&gt;n16</title>
<path fill="none" stroke="black" d="M209.77,-731.11C218.04,-727.13 225.6,-721.88 231.68,-715 297.58,-640.52 191.25,-565.16 259.68,-493 267.27,-485 276.36,-478.89 286.27,-474.27"/>
<polygon fill="black" stroke="black" points="287.66,-477.48 295.57,-470.43 284.99,-471.01 287.66,-477.48"/>
</g>
<!-- n7&#45;&gt;n4 -->
<g id="edge18" class="edge">
<title>n7-&gt;n4</title>
<path fill="none" stroke="black" d="M210.2,-731.13C218.33,-727.13 225.74,-721.88 231.68,-715 271.97,-668.34 217.81,-484.24 259.68,-439 266.14,-432.02 273.74,-426.47 282.04,-422.09"/>
<polygon fill="black" stroke="black" points="283.71,-425.17 291.29,-417.78 280.75,-418.83 283.71,-425.17"/>
</g>
<!-- n7&#45;&gt;n20 -->
<g id="edge21" class="edge">
<title>n7-&gt;n20</title>
<path fill="none" stroke="black" d="M210.31,-731.23C218.42,-727.21 225.8,-721.93 231.68,-715 279.32,-658.9 210.14,-439.42 259.68,-385 264.46,-379.75 269.89,-375.3 275.78,-371.55"/>
<polygon fill="black" stroke="black" points="277.7,-374.49 284.7,-366.54 274.27,-368.38 277.7,-374.49"/>
</g>
<!-- n7&#45;&gt;n14 -->
<g id="edge24" class="edge">
<title>n7-&gt;n14</title>
<path fill="none" stroke="black" d="M210.71,-731.22C218.7,-727.2 225.94,-721.91 231.68,-715 294.03,-640 194.78,-349.8 259.68,-277 264.88,-271.17 270.87,-266.33 277.41,-262.32"/>
<polygon fill="black" stroke="black" points="279.49,-265.18 286.64,-257.36 276.17,-259.01 279.49,-265.18"/>
</g>
<!-- n7&#45;&gt;n18 -->
<g id="edge27" class="edge">
<title>n7-&gt;n18</title>
<path fill="none" stroke="black" d="M209.22,-730.98C217.64,-727.02 225.39,-721.82 231.68,-715 282.15,-660.36 207.87,-603.37 259.68,-550 267.03,-542.43 275.71,-536.49 285.14,-531.85"/>
<polygon fill="black" stroke="black" points="286.63,-535.02 294.38,-527.8 283.81,-528.61 286.63,-535.02"/>
</g>
<!-- n11 -->
<g id="node23" class="node">
<title>n11</title>
<ellipse fill="none" stroke="red" cx="410.44" cy="-580" rx="130.29" ry="18"/>
<text text-anchor="middle" x="410.44" y="-575.8" font-family="Times,serif" font-size="14">kernels/lib/slibgfusedMM_pt.a</text>
</g>
<!-- n11&#45;&gt;n15 -->
<g id="edge34" class="edge">
<title>n11-&gt;n15</title>
<path fill="none" stroke="black" d="M521.41,-570.35C533.22,-565.54 544.19,-558.95 553.2,-550 606.44,-497.09 535.05,-436.97 589.2,-385 598.31,-376.26 609.19,-369.8 620.9,-365.09"/>
<polygon fill="black" stroke="black" points="622.21,-368.34 630.45,-361.68 619.86,-361.75 622.21,-368.34"/>
</g>
<!-- n11&#45;&gt;n3 -->
<g id="edge37" class="edge">
<title>n11-&gt;n3</title>
<path fill="none" stroke="black" d="M522.84,-570.77C534.26,-565.87 544.74,-559.14 553.2,-550 636.32,-460.18 504.53,-365.36 589.2,-277 596.66,-269.21 605.52,-263.19 615.16,-258.58"/>
<polygon fill="black" stroke="black" points="616.78,-261.69 624.63,-254.57 614.05,-255.25 616.78,-261.69"/>
</g>
<!-- n11&#45;&gt;n19 -->
<g id="edge40" class="edge">
<title>n11-&gt;n19</title>
<path fill="none" stroke="black" d="M523.52,-570.92C534.74,-565.98 545,-559.2 553.2,-550 609.8,-486.53 531.5,-231.48 589.2,-169 594.51,-163.25 600.58,-158.45 607.17,-154.46"/>
<polygon fill="black" stroke="black" points="609.28,-157.31 616.46,-149.52 605.99,-151.13 609.28,-157.31"/>
</g>
<!-- n11&#45;&gt;n13 -->
<g id="edge43" class="edge">
<title>n11-&gt;n13</title>
<path fill="none" stroke="black" d="M524.05,-570.93C535.1,-565.97 545.18,-559.19 553.2,-550 624.87,-467.93 516.11,-141.81 589.2,-61 595.15,-54.42 602.09,-49.09 609.67,-44.78"/>
<polygon fill="black" stroke="black" points="611.46,-47.79 618.84,-40.19 608.33,-41.54 611.46,-47.79"/>
</g>
<!-- n11&#45;&gt;n17 -->
<g id="edge46" class="edge">
<title>n11-&gt;n17</title>
<path fill="none" stroke="black" d="M513.18,-568.88C527.4,-564.43 541.22,-558.33 553.2,-550 577.79,-532.88 564.31,-509.69 589.2,-493 599.14,-486.34 610.23,-481.17 621.77,-477.17"/>
<polygon fill="black" stroke="black" points="623.07,-480.43 631.56,-474.09 620.97,-473.76 623.07,-480.43"/>
</g>
<!-- n11&#45;&gt;n24 -->
<g id="edge49" class="edge">
<title>n11-&gt;n24</title>
<path fill="none" stroke="black" d="M519.15,-570.02C531.63,-565.31 543.38,-558.84 553.2,-550 591.75,-515.3 550.05,-473.02 589.2,-439 596.8,-432.4 605.43,-427.14 614.63,-422.98"/>
<polygon fill="black" stroke="black" points="616.06,-426.18 624.01,-419.18 613.42,-419.69 616.06,-426.18"/>
</g>
<!-- n11&#45;&gt;n21 -->
<g id="edge52" class="edge">
<title>n11-&gt;n21</title>
<path fill="none" stroke="black" d="M522.21,-570.65C533.81,-565.78 544.51,-559.09 553.2,-550 621.34,-478.68 519.83,-401.13 589.2,-331 595.1,-325.04 601.82,-320.12 609.08,-316.08"/>
<polygon fill="black" stroke="black" points="611.11,-318.99 618.53,-311.43 608.02,-312.71 611.11,-318.99"/>
</g>
<!-- n11&#45;&gt;n26 -->
<g id="edge55" class="edge">
<title>n11-&gt;n26</title>
<path fill="none" stroke="black" d="M523.38,-570.8C534.63,-565.87 544.93,-559.14 553.2,-550 651.35,-441.63 489.18,-329.65 589.2,-223 593.64,-218.26 598.6,-214.18 603.94,-210.66"/>
<polygon fill="black" stroke="black" points="605.75,-213.65 612.62,-205.59 602.22,-207.61 605.75,-213.65"/>
</g>
<!-- n11&#45;&gt;n23 -->
<g id="edge58" class="edge">
<title>n11-&gt;n23</title>
<path fill="none" stroke="black" d="M523.62,-571.02C534.83,-566.05 545.05,-559.25 553.2,-550 617.33,-477.23 523.81,-186.64 589.2,-115 593.93,-109.82 599.27,-105.41 605.06,-101.67"/>
<polygon fill="black" stroke="black" points="606.89,-104.66 613.83,-96.65 603.41,-98.58 606.89,-104.66"/>
</g>
<!-- n11&#45;&gt;n25 -->
<g id="edge61" class="edge">
<title>n11-&gt;n25</title>
<path fill="none" stroke="black" d="M490.44,-565.7C539.02,-556.91 601.44,-545.62 652.08,-536.46"/>
<polygon fill="black" stroke="black" points="652.82,-539.88 662.04,-534.65 651.58,-532.99 652.82,-539.88"/>
</g>
<!-- n12 -->
<g id="node24" class="node">
<title>n12</title>
<ellipse fill="none" stroke="forestgreen" cx="123.84" cy="-850" rx="79.35" ry="18"/>
<text text-anchor="middle" x="123.84" y="-845.8" font-family="Times,serif" font-size="14">kernels/rungen.sh</text>
</g>
<!-- n12&#45;&gt;n11 -->
<g id="edge62" class="edge">
<title>n12-&gt;n11</title>
<path fill="none" stroke="black" d="M191.71,-840.63C205.69,-836.66 219.79,-831.02 231.68,-823 314.76,-766.96 373.1,-658.57 397.16,-607.67"/>
<polygon fill="black" stroke="black" points="400.48,-608.83 401.51,-598.29 394.13,-605.89 400.48,-608.83"/>
</g>
<!-- n5 -->
<g id="node25" class="node">
<title>n5</title>
<ellipse fill="none" stroke="forestgreen" cx="123.84" cy="-796" rx="98.98" ry="18"/>
<text text-anchor="middle" x="123.84" y="-791.8" font-family="Times,serif" font-size="14">test/fusedMMtime.cpp</text>
</g>
<!-- n5&#45;&gt;n16 -->
<g id="edge16" class="edge">
<title>n5-&gt;n16</title>
<path fill="none" stroke="black" d="M207.6,-786.35C216.75,-782.22 225.12,-776.6 231.68,-769 271.97,-722.34 217.81,-538.24 259.68,-493 267.17,-484.91 276.2,-478.74 286.06,-474.08"/>
<polygon fill="black" stroke="black" points="287.45,-477.29 295.33,-470.21 284.76,-470.83 287.45,-477.29"/>
</g>
<!-- n5&#45;&gt;n4 -->
<g id="edge19" class="edge">
<title>n5-&gt;n4</title>
<path fill="none" stroke="black" d="M207.72,-786.46C216.85,-782.31 225.18,-776.66 231.68,-769 279.32,-712.9 210.14,-493.42 259.68,-439 266.08,-431.97 273.64,-426.38 281.91,-421.97"/>
<polygon fill="black" stroke="black" points="283.58,-425.06 291.14,-417.64 280.6,-418.72 283.58,-425.06"/>
</g>
<!-- n5&#45;&gt;n20 -->
<g id="edge22" class="edge">
<title>n5-&gt;n20</title>
<path fill="none" stroke="black" d="M207.81,-786.53C216.93,-782.37 225.23,-776.7 231.68,-769 286.67,-703.45 202.46,-448.61 259.68,-385 264.37,-379.79 269.7,-375.37 275.48,-371.63"/>
<polygon fill="black" stroke="black" points="277.3,-374.62 284.25,-366.62 273.83,-368.54 277.3,-374.62"/>
</g>
<!-- n5&#45;&gt;n14 -->
<g id="edge25" class="edge">
<title>n5-&gt;n14</title>
<path fill="none" stroke="black" d="M208.18,-786.51C217.18,-782.34 225.35,-776.67 231.68,-769 301.4,-684.54 187.09,-358.99 259.68,-277 264.86,-271.15 270.84,-266.3 277.36,-262.28"/>
<polygon fill="black" stroke="black" points="279.44,-265.13 286.58,-257.31 276.12,-258.97 279.44,-265.13"/>
</g>

<!-- n5&#45;&gt;n18 -->

<g id="edge28" class="edge">
<title>n5-&gt;n18</title>
<path fill="none" stroke="black" d="M207.15,-786.31C216.44,-782.19 224.96,-776.59 231.68,-769 296.77,-695.57 192.79,-621.79 259.68,-550 266.73,-542.43 275.11,-536.48 284.25,-531.81"/>
<polygon fill="black" stroke="black" points="285.95,-534.89 293.62,-527.57 283.06,-528.51 285.95,-534.89"/>
</g>

</g>
</svg>