<?xml version="1.0" encoding="UTF-8" standalone="no"?>
<!DOCTYPE svg PUBLIC "-//W3C//DTD SVG 1.1//EN"
 "http://www.w3.org/Graphics/SVG/1.1/DTD/svg11.dtd">
<!-- Generated by graphviz version 2.43.0 (0)
 -->
<!-- Title: G Pages: 1 -->
<svg width="3066pt" height="2767pt"
 viewBox="0.00 0.00 3065.56 2766.70" xmlns="http://www.w3.org/2000/svg" xmlns:xlink="http://www.w3.org/1999/xlink">
<g id="graph0" class="graph" transform="scale(1 1) rotate(0) translate(4 2762.7)">
<title>G</title>
<polygon fill="white" stroke="transparent" points="-4,4 -4,-2762.7 3061.56,-2762.7 3061.56,4 -4,4"/>
<!-- n2 -->
<g id="node1" class="node">
<title>n2</title>
<ellipse fill="none" stroke="red" cx="789.64" cy="-2558.32" rx="27" ry="18"/>
<text text-anchor="middle" x="789.64" y="-2555.22" font-family="Times,serif" font-size="12.00">all</text>
</g>
<!-- n8 -->
<g id="node2" class="node">
<title>n8</title>
<ellipse fill="none" stroke="red" cx="2150.99" cy="-200.39" rx="82.48" ry="18"/>
<text text-anchor="middle" x="2150.99" y="-197.29" font-family="Times,serif" font-size="12.00">bin/sFusedMM_pt.o</text>
</g>
<!-- n15 -->
<g id="node9" class="node">
<title>n15</title>
<ellipse fill="none" stroke="red" cx="1822.66" cy="-64.39" rx="106.49" ry="18"/>
<text text-anchor="middle" x="1822.66" y="-61.29" font-family="Times,serif" font-size="12.00">bin/xsFusedMMtime_fr_pt</text>
</g>
<!-- n8&#45;&gt;n15 -->
<g id="edge32" class="edge">
<title>n8&#45;&gt;n15</title>
<path fill="none" stroke="black" d="M2112.36,-184.39C2052.66,-159.66 1938.02,-112.17 1872.26,-84.94"/>
<polygon fill="black" stroke="black" points="1873.51,-81.66 1862.93,-81.07 1870.83,-88.13 1873.51,-81.66"/>
</g>
<!-- n3 -->
<g id="node10" class="node">
<title>n3</title>
<ellipse fill="none" stroke="red" cx="2785.28" cy="-1027.01" rx="113.04" ry="18"/>
<text text-anchor="middle" x="2785.28" y="-1023.91" font-family="Times,serif" font-size="12.00">bin/xsFusedMMtime_gcn_pt</text>
</g>
<!-- n8&#45;&gt;n3 -->
<g id="edge35" class="edge">
<title>n8&#45;&gt;n3</title>
<path fill="none" stroke="black" d="M2164.83,-218.42C2246.73,-325.17 2667.78,-873.88 2765.16,-1000.79"/>
<polygon fill="black" stroke="black" points="2762.49,-1003.06 2771.35,-1008.86 2768.04,-998.79 2762.49,-1003.06"/>
</g>
<!-- n19 -->
<g id="node11" class="node">
<title>n19</title>
<ellipse fill="none" stroke="red" cx="2649.28" cy="-698.68" rx="128.82" ry="18"/>
<text text-anchor="middle" x="2649.28" y="-695.58" font-family="Times,serif" font-size="12.00">bin/xsFusedMMtime_sigmoid_pt</text>
</g>
<!-- n8&#45;&gt;n19 -->
<g id="edge38" class="edge">
<title>n8&#45;&gt;n19</title>
<path fill="none" stroke="black" d="M2168.72,-218.12C2243.85,-293.25 2536.08,-585.48 2624.07,-673.47"/>
<polygon fill="black" stroke="black" points="2621.69,-676.04 2631.23,-680.63 2626.64,-671.09 2621.69,-676.04"/>
</g>
<!-- n13 -->
<g id="node12" class="node">
<title>n13</title>
<ellipse fill="none" stroke="red" cx="2432.93" cy="-416.73" rx="121.77" ry="18"/>
<text text-anchor="middle" x="2432.93" y="-413.63" font-family="Times,serif" font-size="12.00">bin/xsFusedMMtime_spmm_pt</text>
</g>
<!-- n8&#45;&gt;n13 -->
<g id="edge41" class="edge">
<title>n8&#45;&gt;n13</title>
<path fill="none" stroke="black" d="M2173.58,-217.73C2223.78,-256.24 2344.63,-348.97 2401.87,-392.89"/>
<polygon fill="black" stroke="black" points="2399.77,-395.7 2409.83,-399.01 2404.03,-390.14 2399.77,-395.7"/>
</g>
<!-- n17 -->
<g id="node13" class="node">
<title>n17</title>
<ellipse fill="none" stroke="red" cx="1470.31" cy="-18" rx="115.96" ry="18"/>
<text text-anchor="middle" x="1470.31" y="-14.9" font-family="Times,serif" font-size="12.00">bin/xsFusedMMtime_tdist_pt</text>
</g>
<!-- n8&#45;&gt;n17 -->
<g id="edge44" class="edge">
<title>n8&#45;&gt;n17</title>
<path fill="none" stroke="black" d="M2098.71,-186.38C1976.92,-153.75 1674.37,-72.68 1538.4,-36.24"/>
<polygon fill="black" stroke="black" points="1539.07,-32.8 1528.51,-33.59 1537.26,-39.56 1539.07,-32.8"/>
</g>
<!-- n16 -->
<g id="node3" class="node">
<title>n16</title>
<ellipse fill="none" stroke="red" cx="108.96" cy="-1379.35" rx="108.92" ry="18"/>
<text text-anchor="middle" x="108.96" y="-1376.25" font-family="Times,serif" font-size="12.00">bin/sFusedMMtime_fr_pt.o</text>
</g>
<!-- n16&#45;&gt;n15 -->
<g id="edge33" class="edge">
<title>n16&#45;&gt;n15</title>
<path fill="none" stroke="black" d="M132.21,-1361.51C319.22,-1218.01 1576.72,-253.1 1791.49,-88.3"/>
<polygon fill="black" stroke="black" points="1793.73,-90.99 1799.53,-82.13 1789.47,-85.44 1793.73,-90.99"/>
</g>
<!-- n24 -->
<g id="node14" class="node">
<title>n24</title>
<ellipse fill="none" stroke="red" cx="1470.31" cy="-2740.7" rx="119.35" ry="18"/>
<text text-anchor="middle" x="1470.31" y="-2737.6" font-family="Times,serif" font-size="12.00">bin/xsOptFusedMMtime_fr_pt</text>
</g>
<!-- n16&#45;&gt;n24 -->
<g id="edge47" class="edge">
<title>n16&#45;&gt;n24</title>
<path fill="none" stroke="black" d="M126.92,-1397.31C273.54,-1543.93 1272.64,-2543.03 1445.01,-2715.4"/>
<polygon fill="black" stroke="black" points="1442.6,-2717.94 1452.14,-2722.54 1447.55,-2712.99 1442.6,-2717.94"/>
</g>
<!-- n4 -->
<g id="node4" class="node">
<title>n4</title>
<ellipse fill="none" stroke="red" cx="507.69" cy="-416.73" rx="115.96" ry="18"/>
<text text-anchor="middle" x="507.69" y="-413.63" font-family="Times,serif" font-size="12.00">bin/sFusedMMtime_gcn_pt.o</text>
</g>
<!-- n4&#45;&gt;n3 -->
<g id="edge36" class="edge">
<title>n4&#45;&gt;n3</title>
<path fill="none" stroke="black" d="M565.99,-432.35C881.14,-516.8 2379.38,-918.25 2717.41,-1008.82"/>
<polygon fill="black" stroke="black" points="2716.74,-1012.27 2727.3,-1011.47 2718.55,-1005.51 2716.74,-1012.27"/>
</g>
<!-- n21 -->
<g id="node15" class="node">
<title>n21</title>
<ellipse fill="none" stroke="red" cx="507.69" cy="-2341.97" rx="126.62" ry="18"/>
<text text-anchor="middle" x="507.69" y="-2338.87" font-family="Times,serif" font-size="12.00">bin/xsOptFusedMMtime_gcn_pt</text>
</g>
<!-- n4&#45;&gt;n21 -->
<g id="edge50" class="edge">
<title>n4&#45;&gt;n21</title>
<path fill="none" stroke="black" d="M507.69,-434.86C507.69,-615.53 507.69,-2090.12 507.69,-2313.63"/>
<polygon fill="black" stroke="black" points="504.19,-2313.87 507.69,-2323.87 511.19,-2313.87 504.19,-2313.87"/>
</g>
<!-- n20 -->
<g id="node5" class="node">
<title>n20</title>
<ellipse fill="none" stroke="red" cx="1117.97" cy="-64.39" rx="131.97" ry="18"/>
<text text-anchor="middle" x="1117.97" y="-61.29" font-family="Times,serif" font-size="12.00">bin/sFusedMMtime_sigmoid_pt.o</text>
</g>
<!-- n20&#45;&gt;n19 -->
<g id="edge39" class="edge">
<title>n20&#45;&gt;n19</title>
<path fill="none" stroke="black" d="M1159.32,-81.52C1374.2,-170.52 2362.37,-579.84 2598.5,-677.64"/>
<polygon fill="black" stroke="black" points="2597.3,-680.93 2607.88,-681.53 2599.98,-674.47 2597.3,-680.93"/>
</g>
<!-- n26 -->
<g id="node16" class="node">
<title>n26</title>
<ellipse fill="none" stroke="red" cx="1117.97" cy="-2694.32" rx="142.4" ry="18"/>
<text text-anchor="middle" x="1117.97" y="-2691.22" font-family="Times,serif" font-size="12.00">bin/xsOptFusedMMtime_sigmoid_pt</text>
</g>
<!-- n20&#45;&gt;n26 -->
<g id="edge53" class="edge">
<title>n20&#45;&gt;n26</title>
<path fill="none" stroke="black" d="M1117.97,-82.59C1117.97,-300.02 1117.97,-2397.47 1117.97,-2666.06"/>
<polygon fill="black" stroke="black" points="1114.47,-2666.16 1117.97,-2676.16 1121.47,-2666.16 1114.47,-2666.16"/>
</g>
<!-- n14 -->
<g id="node6" class="node">
<title>n14</title>
<ellipse fill="none" stroke="red" cx="291.35" cy="-698.68" rx="124.93" ry="18"/>
<text text-anchor="middle" x="291.35" y="-695.58" font-family="Times,serif" font-size="12.00">bin/sFusedMMtime_spmm_pt.o</text>
</g>
<!-- n14&#45;&gt;n13 -->
<g id="edge42" class="edge">
<title>n14&#45;&gt;n13</title>
<path fill="none" stroke="black" d="M383.71,-686.52C732.6,-640.58 1968.8,-477.83 2331.93,-430.03"/>
<polygon fill="black" stroke="black" points="2332.44,-433.49 2341.9,-428.72 2331.53,-426.55 2332.44,-433.49"/>
</g>
<!-- n23 -->
<g id="node17" class="node">
<title>n23</title>
<ellipse fill="none" stroke="red" cx="2150.99" cy="-2558.32" rx="135.36" ry="18"/>
<text text-anchor="middle" x="2150.99" y="-2555.22" font-family="Times,serif" font-size="12.00">bin/xsOptFusedMMtime_spmm_pt</text>
</g>
<!-- n14&#45;&gt;n23 -->
<g id="edge56" class="edge">
<title>n14&#45;&gt;n23</title>
<path fill="none" stroke="black" d="M309.45,-716.78C487.19,-894.52 1917.95,-2325.28 2125.83,-2533.17"/>
<polygon fill="black" stroke="black" points="2123.43,-2535.71 2132.98,-2540.31 2128.38,-2530.76 2123.43,-2535.71"/>
</g>
<!-- n18 -->
<g id="node7" class="node">
<title>n18</title>
<ellipse fill="none" stroke="red" cx="291.35" cy="-2060.03" rx="118.62" ry="18"/>
<text text-anchor="middle" x="291.35" y="-2056.93" font-family="Times,serif" font-size="12.00">bin/sFusedMMtime_tdist_pt.o</text>
</g>
<!-- n18&#45;&gt;n17 -->
<g id="edge45" class="edge">
<title>n18&#45;&gt;n17</title>
<path fill="none" stroke="black" d="M301.72,-2042.06C409.5,-1855.37 1323.76,-271.83 1454.72,-45.01"/>
<polygon fill="black" stroke="black" points="1457.9,-46.49 1459.87,-36.08 1451.84,-42.99 1457.9,-46.49"/>
</g>
<!-- n25 -->
<g id="node18" class="node">
<title>n25</title>
<ellipse fill="none" stroke="red" cx="2432.93" cy="-2341.97" rx="129.05" ry="18"/>
<text text-anchor="middle" x="2432.93" y="-2338.87" font-family="Times,serif" font-size="12.00">bin/xsOptFusedMMtime_tdist_pt</text>
</g>
<!-- n18&#45;&gt;n25 -->
<g id="edge59" class="edge">
<title>n18&#45;&gt;n25</title>
<path fill="none" stroke="black" d="M381.32,-2071.87C725.91,-2117.24 1960.77,-2279.81 2328.74,-2328.26"/>
<polygon fill="black" stroke="black" points="2328.47,-2331.75 2338.85,-2329.59 2329.39,-2324.81 2328.47,-2331.75"/>
</g>
<!-- n22 -->
<g id="node8" class="node">
<title>n22</title>
<ellipse fill="none" stroke="red" cx="1822.66" cy="-2694.32" rx="96.06" ry="18"/>
<text text-anchor="middle" x="1822.66" y="-2691.22" font-family="Times,serif" font-size="12.00">bin/sOptFusedMM_pt.o</text>
</g>
<!-- n22&#45;&gt;n24 -->
<g id="edge48" class="edge">
<title>n22&#45;&gt;n24</title>
<path fill="none" stroke="black" d="M1744.02,-2704.67C1692.85,-2711.41 1625.65,-2720.25 1570.64,-2727.5"/>
<polygon fill="black" stroke="black" points="1569.97,-2724.05 1560.52,-2728.83 1570.89,-2730.99 1569.97,-2724.05"/>
</g>
<!-- n22&#45;&gt;n21 -->
<g id="edge51" class="edge">
<title>n22&#45;&gt;n21</title>
<path fill="none" stroke="black" d="M1767.41,-2679.51C1557.41,-2623.25 808.92,-2422.69 576.83,-2360.5"/>
<polygon fill="black" stroke="black" points="577.72,-2357.11 567.15,-2357.91 575.9,-2363.88 577.72,-2357.11"/>
</g>
<!-- n22&#45;&gt;n26 -->
<g id="edge54" class="edge">
<title>n22&#45;&gt;n26</title>
<path fill="none" stroke="black" d="M1726.52,-2694.32C1609.12,-2694.32 1409.12,-2694.32 1270.6,-2694.32"/>
<polygon fill="black" stroke="black" points="1270.32,-2690.82 1260.32,-2694.32 1270.32,-2697.82 1270.32,-2690.82"/>
</g>
<!-- n22&#45;&gt;n23 -->
<g id="edge57" class="edge">
<title>n22&#45;&gt;n23</title>
<path fill="none" stroke="black" d="M1862.26,-2677.91C1921.84,-2653.23 2034.52,-2606.56 2100.11,-2579.39"/>
<polygon fill="black" stroke="black" points="2101.53,-2582.59 2109.43,-2575.53 2098.85,-2576.12 2101.53,-2582.59"/>
</g>
<!-- n22&#45;&gt;n25 -->
<g id="edge60" class="edge">
<title>n22&#45;&gt;n25</title>
<path fill="none" stroke="black" d="M1852.5,-2677.08C1953.16,-2618.97 2280.15,-2430.18 2393.68,-2364.64"/>
<polygon fill="black" stroke="black" points="2395.51,-2367.62 2402.42,-2359.59 2392.01,-2361.56 2395.51,-2367.62"/>
</g>
<!-- n15&#45;&gt;n2 -->
<g id="edge1" class="edge">
<title>n15&#45;&gt;n2</title>
<path fill="none" stroke="black" d="M1815.08,-82.68C1727.38,-294.39 905.92,-2277.59 800.71,-2531.59"/>
<polygon fill="black" stroke="black" points="797.47,-2530.25 796.88,-2540.83 803.94,-2532.93 797.47,-2530.25"/>
</g>
<!-- n3&#45;&gt;n2 -->
<g id="edge2" class="edge">
<title>n3&#45;&gt;n2</title>
<path fill="none" stroke="black" d="M2762.17,-1044.74C2555.96,-1202.97 1033.66,-2371.07 815.61,-2538.39"/>
<polygon fill="black" stroke="black" points="813.38,-2535.69 807.58,-2544.55 817.64,-2541.24 813.38,-2535.69"/>
</g>
<!-- n19&#45;&gt;n2 -->
<g id="edge3" class="edge">
<title>n19&#45;&gt;n2</title>
<path fill="none" stroke="black" d="M2631.17,-716.78C2452.6,-895.36 1009.11,-2338.84 811.92,-2536.03"/>
<polygon fill="black" stroke="black" points="809.29,-2533.72 804.69,-2543.26 814.24,-2538.67 809.29,-2533.72"/>
</g>
<!-- n13&#45;&gt;n2 -->
<g id="edge4" class="edge">
<title>n13&#45;&gt;n2</title>
<path fill="none" stroke="black" d="M2418.97,-434.92C2270.25,-628.74 979.81,-2310.47 808.41,-2533.85"/>
<polygon fill="black" stroke="black" points="805.46,-2531.95 802.15,-2542.01 811.01,-2536.21 805.46,-2531.95"/>
</g>
<!-- n17&#45;&gt;n2 -->
<g id="edge5" class="edge">
<title>n17&#45;&gt;n2</title>
<path fill="none" stroke="black" d="M1465.41,-36.28C1408.16,-249.95 866.87,-2270.08 797.04,-2530.68"/>
<polygon fill="black" stroke="black" points="793.62,-2529.92 794.41,-2540.49 800.38,-2531.74 793.62,-2529.92"/>
</g>
<!-- n24&#45;&gt;n2 -->
<g id="edge6" class="edge">
<title>n24&#45;&gt;n2</title>
<path fill="none" stroke="black" d="M1411.69,-2725C1274.39,-2688.21 935.28,-2597.34 824.94,-2567.78"/>
<polygon fill="black" stroke="black" points="825.56,-2564.32 815,-2565.11 823.75,-2571.08 825.56,-2564.32"/>
</g>
<!-- n21&#45;&gt;n2 -->
<g id="edge7" class="edge">
<title>n21&#45;&gt;n2</title>
<path fill="none" stroke="black" d="M530.76,-2359.68C582.82,-2399.62 709.11,-2496.53 763.74,-2538.45"/>
<polygon fill="black" stroke="black" points="761.81,-2541.38 771.87,-2544.69 766.07,-2535.82 761.81,-2541.38"/>
</g>
<!-- n26&#45;&gt;n2 -->
<g id="edge8" class="edge">
<title>n26&#45;&gt;n2</title>
<path fill="none" stroke="black" d="M1076.38,-2677.09C1010.18,-2649.67 882.2,-2596.66 822.18,-2571.8"/>
<polygon fill="black" stroke="black" points="823.39,-2568.51 812.81,-2567.92 820.71,-2574.98 823.39,-2568.51"/>
</g>
<!-- n23&#45;&gt;n2 -->
<g id="edge9" class="edge">
<title>n23&#45;&gt;n2</title>
<path fill="none" stroke="black" d="M2015.48,-2558.32C1713.44,-2558.32 998.13,-2558.32 826.92,-2558.32"/>
<polygon fill="black" stroke="black" points="826.89,-2554.82 816.89,-2558.32 826.89,-2561.82 826.89,-2554.82"/>
</g>
<!-- n25&#45;&gt;n2 -->
<g id="edge10" class="edge">
<title>n25&#45;&gt;n2</title>
<path fill="none" stroke="black" d="M2338.98,-2354.34C2026.6,-2395.47 1031.03,-2526.54 826.56,-2553.46"/>
<polygon fill="black" stroke="black" points="825.81,-2550.03 816.35,-2554.8 826.72,-2556.97 825.81,-2550.03"/>
</g>
<!-- n9 -->
<g id="node19" class="node">
<title>n9</title>
<ellipse fill="none" stroke="forestgreen" cx="2649.28" cy="-2060.03" rx="51.19" ry="18"/>
<text text-anchor="middle" x="2649.28" y="-2056.93" font-family="Times,serif" font-size="12.00">fusedMM.c</text>
</g>
<!-- n9&#45;&gt;n8 -->
<g id="edge11" class="edge">
<title>n9&#45;&gt;n8</title>
<path fill="none" stroke="black" d="M2644.43,-2041.92C2596.99,-1864.89 2216.46,-444.72 2158.4,-228.06"/>
<polygon fill="black" stroke="black" points="2161.78,-227.15 2155.81,-218.4 2155.02,-228.96 2161.78,-227.15"/>
</g>
<!-- n9&#45;&gt;n22 -->
<g id="edge29" class="edge">
<title>n9&#45;&gt;n22</title>
<path fill="none" stroke="black" d="M2627.59,-2076.67C2514.05,-2163.79 1988.19,-2567.3 1853.93,-2670.32"/>
<polygon fill="black" stroke="black" points="1851.46,-2667.8 1845.66,-2676.67 1855.72,-2673.36 1851.46,-2667.8"/>
</g>
<!-- n6 -->
<g id="node20" class="node">
<title>n6</title>
<ellipse fill="none" stroke="forestgreen" cx="789.64" cy="-200.39" rx="51.92" ry="18"/>
<text text-anchor="middle" x="789.64" y="-197.29" font-family="Times,serif" font-size="12.00">fusedMM.h</text>
</g>
<!-- n6&#45;&gt;n8 -->
<g id="edge12" class="edge">
<title>n6&#45;&gt;n8</title>
<path fill="none" stroke="black" d="M841.75,-200.39C1046.07,-200.39 1794.13,-200.39 2058.05,-200.39"/>
<polygon fill="black" stroke="black" points="2058.36,-203.89 2068.36,-200.39 2058.36,-196.89 2058.36,-203.89"/>
</g>
<!-- n6&#45;&gt;n16 -->
<g id="edge14" class="edge">
<title>n6&#45;&gt;n16</title>
<path fill="none" stroke="black" d="M779.22,-218.43C701.89,-352.36 217.77,-1190.88 124.5,-1352.44"/>
<polygon fill="black" stroke="black" points="121.37,-1350.86 119.4,-1361.27 127.43,-1354.36 121.37,-1350.86"/>
</g>
<!-- n6&#45;&gt;n4 -->
<g id="edge17" class="edge">
<title>n6&#45;&gt;n4</title>
<path fill="none" stroke="black" d="M767.98,-217C718.45,-255.01 596.74,-348.4 539.03,-392.69"/>
<polygon fill="black" stroke="black" points="536.79,-389.99 530.99,-398.85 541.06,-395.54 536.79,-389.99"/>
</g>
<!-- n6&#45;&gt;n20 -->
<g id="edge20" class="edge">
<title>n6&#45;&gt;n20</title>
<path fill="none" stroke="black" d="M822.92,-186.6C880.5,-162.75 999,-113.66 1067.01,-85.5"/>
<polygon fill="black" stroke="black" points="1068.76,-88.56 1076.66,-81.5 1066.08,-82.09 1068.76,-88.56"/>
</g>
<!-- n6&#45;&gt;n14 -->
<g id="edge23" class="edge">
<title>n6&#45;&gt;n14</title>
<path fill="none" stroke="black" d="M772.48,-217.54C698.24,-291.79 404.34,-585.68 316.36,-673.66"/>
<polygon fill="black" stroke="black" points="313.8,-671.27 309.2,-680.82 318.75,-676.22 313.8,-671.27"/>
</g>
<!-- n6&#45;&gt;n18 -->
<g id="edge26" class="edge">
<title>n6&#45;&gt;n18</title>
<path fill="none" stroke="black" d="M784.78,-218.49C737.35,-395.52 356.81,-1815.69 298.76,-2032.35"/>
<polygon fill="black" stroke="black" points="295.38,-2031.45 296.17,-2042.02 302.14,-2033.26 295.38,-2031.45"/>
</g>
<!-- n6&#45;&gt;n22 -->
<g id="edge30" class="edge">
<title>n6&#45;&gt;n22</title>
<path fill="none" stroke="black" d="M797.07,-218.33C883.91,-427.99 1704.56,-2409.22 1811.24,-2666.77"/>
<polygon fill="black" stroke="black" points="1808.07,-2668.26 1815.13,-2676.16 1814.54,-2665.58 1808.07,-2668.26"/>
</g>
<!-- n10 -->
<g id="node21" class="node">
<title>n10</title>
<ellipse fill="none" stroke="forestgreen" cx="2785.28" cy="-1731.7" rx="84.17" ry="18"/>
<text text-anchor="middle" x="2785.28" y="-1728.6" font-family="Times,serif" font-size="12.00">fusedMM_internal.h</text>
</g>
<!-- n10&#45;&gt;n8 -->
<g id="edge13" class="edge">
<title>n10&#45;&gt;n8</title>
<path fill="none" stroke="black" d="M2777.82,-1713.7C2712.75,-1556.61 2241.69,-419.36 2162.33,-227.76"/>
<polygon fill="black" stroke="black" points="2165.51,-226.29 2158.45,-218.39 2159.04,-228.97 2165.51,-226.29"/>
</g>
<!-- n10&#45;&gt;n22 -->
<g id="edge31" class="edge">
<title>n10&#45;&gt;n22</title>
<path fill="none" stroke="black" d="M2767.33,-1749.64C2649.36,-1867.61 1985.58,-2531.39 1847.73,-2669.25"/>
<polygon fill="black" stroke="black" points="1845.08,-2666.95 1840.48,-2676.49 1850.03,-2671.9 1845.08,-2666.95"/>
</g>
<!-- n7 -->
<g id="node22" class="node">
<title>n7</title>
<ellipse fill="none" stroke="forestgreen" cx="155.35" cy="-1027.01" rx="102.61" ry="18"/>
<text text-anchor="middle" x="155.35" y="-1023.91" font-family="Times,serif" font-size="12.00">kernels/include/kernels.h</text>
</g>
<!-- n7&#45;&gt;n16 -->
<g id="edge15" class="edge">
<title>n7&#45;&gt;n16</title>
<path fill="none" stroke="black" d="M152.92,-1045.46C145.31,-1103.25 121.89,-1281.1 112.71,-1350.85"/>
<polygon fill="black" stroke="black" points="109.2,-1350.72 111.36,-1361.09 116.14,-1351.63 109.2,-1350.72"/>
</g>
<!-- n7&#45;&gt;n4 -->
<g id="edge18" class="edge">
<title>n7&#45;&gt;n4</title>
<path fill="none" stroke="black" d="M165.7,-1009.07C215.69,-922.49 432.11,-547.64 492.18,-443.6"/>
<polygon fill="black" stroke="black" points="495.37,-445.08 497.34,-434.67 489.3,-441.58 495.37,-445.08"/>
</g>
<!-- n7&#45;&gt;n20 -->
<g id="edge21" class="edge">
<title>n7&#45;&gt;n20</title>
<path fill="none" stroke="black" d="M173.29,-1009.06C291.13,-891.22 953.62,-228.73 1092.45,-89.9"/>
<polygon fill="black" stroke="black" points="1095.16,-92.14 1099.76,-82.6 1090.21,-87.19 1095.16,-92.14"/>
</g>
<!-- n7&#45;&gt;n14 -->
<g id="edge24" class="edge">
<title>n7&#45;&gt;n14</title>
<path fill="none" stroke="black" d="M162.85,-1008.89C185.42,-954.4 252.78,-791.78 279.87,-726.37"/>
<polygon fill="black" stroke="black" points="283.27,-727.32 283.86,-716.74 276.8,-724.64 283.27,-727.32"/>
</g>
<!-- n7&#45;&gt;n18 -->
<g id="edge27" class="edge">
<title>n7&#45;&gt;n18</title>
<path fill="none" stroke="black" d="M157.76,-1045.38C174.04,-1168.97 267.51,-1879 287.56,-2031.28"/>
<polygon fill="black" stroke="black" points="284.15,-2032.19 288.93,-2041.64 291.09,-2031.27 284.15,-2032.19"/>
</g>
<!-- n11 -->
<g id="node23" class="node">
<title>n11</title>
<ellipse fill="none" stroke="red" cx="2831.66" cy="-1379.35" rx="121.04" ry="18"/>
<text text-anchor="middle" x="2831.66" y="-1376.25" font-family="Times,serif" font-size="12.00">kernels/lib/slibgfusedMM_pt.a</text>
</g>
<!-- n11&#45;&gt;n15 -->
<g id="edge34" class="edge">
<title>n11&#45;&gt;n15</title>
<path fill="none" stroke="black" d="M2817.78,-1361.26C2707.45,-1217.47 1973.2,-260.58 1842.53,-90.29"/>
<polygon fill="black" stroke="black" points="1845.3,-88.14 1836.43,-82.34 1839.74,-92.41 1845.3,-88.14"/>
</g>
<!-- n11&#45;&gt;n3 -->
<g id="edge37" class="edge">
<title>n11&#45;&gt;n3</title>
<path fill="none" stroke="black" d="M2829.23,-1360.9C2821.63,-1303.11 2798.21,-1125.26 2789.03,-1055.51"/>
<polygon fill="black" stroke="black" points="2792.46,-1054.73 2787.68,-1045.27 2785.52,-1055.64 2792.46,-1054.73"/>
</g>
<!-- n11&#45;&gt;n19 -->
<g id="edge40" class="edge">
<title>n11&#45;&gt;n19</title>
<path fill="none" stroke="black" d="M2826.79,-1361.15C2801.71,-1267.55 2687.3,-840.57 2656.78,-726.67"/>
<polygon fill="black" stroke="black" points="2660.14,-725.69 2654.17,-716.94 2653.38,-727.5 2660.14,-725.69"/>
</g>
<!-- n11&#45;&gt;n13 -->
<g id="edge43" class="edge">
<title>n11&#45;&gt;n13</title>
<path fill="none" stroke="black" d="M2824.05,-1360.98C2775.01,-1242.57 2503.59,-587.31 2444.35,-444.3"/>
<polygon fill="black" stroke="black" points="2447.52,-442.8 2440.46,-434.9 2441.05,-445.48 2447.52,-442.8"/>
</g>
<!-- n11&#45;&gt;n17 -->
<g id="edge46" class="edge">
<title>n11&#45;&gt;n17</title>
<path fill="none" stroke="black" d="M2813.7,-1361.39C2667.08,-1214.77 1667.99,-215.68 1495.61,-43.3"/>
<polygon fill="black" stroke="black" points="1498.03,-40.77 1488.48,-36.17 1493.08,-45.72 1498.03,-40.77"/>
</g>
<!-- n11&#45;&gt;n24 -->
<g id="edge49" class="edge">
<title>n11&#45;&gt;n24</title>
<path fill="none" stroke="black" d="M2813.7,-1397.31C2667.08,-1543.93 1667.99,-2543.03 1495.61,-2715.4"/>
<polygon fill="black" stroke="black" points="1493.08,-2712.99 1488.48,-2722.54 1498.03,-2717.94 1493.08,-2712.99"/>
</g>
<!-- n11&#45;&gt;n21 -->
<g id="edge52" class="edge">
<title>n11&#45;&gt;n21</title>
<path fill="none" stroke="black" d="M2790.34,-1396.47C2508.4,-1513.25 869.92,-2191.93 558.72,-2320.84"/>
<polygon fill="black" stroke="black" points="556.95,-2317.78 549.05,-2324.84 559.63,-2324.25 556.95,-2317.78"/>
</g>
<!-- n11&#45;&gt;n26 -->
<g id="edge55" class="edge">
<title>n11&#45;&gt;n26</title>
<path fill="none" stroke="black" d="M2808.41,-1397.19C2621.5,-1540.62 1365.22,-2504.59 1149.47,-2670.14"/>
<polygon fill="black" stroke="black" points="1147.19,-2667.48 1141.39,-2676.34 1151.45,-2673.03 1147.19,-2667.48"/>
</g>
<!-- n11&#45;&gt;n23 -->
<g id="edge58" class="edge">
<title>n11&#45;&gt;n23</title>
<path fill="none" stroke="black" d="M2821.24,-1397.4C2743.92,-1531.33 2259.8,-2369.84 2166.53,-2531.4"/>
<polygon fill="black" stroke="black" points="2163.39,-2529.83 2161.43,-2540.24 2169.46,-2533.33 2163.39,-2529.83"/>
</g>
<!-- n11&#45;&gt;n25 -->
<g id="edge61" class="edge">
<title>n11&#45;&gt;n25</title>
<path fill="none" stroke="black" d="M2824.05,-1397.72C2775.01,-1516.14 2503.59,-2171.39 2444.35,-2314.4"/>
<polygon fill="black" stroke="black" points="2441.05,-2313.22 2440.46,-2323.8 2447.52,-2315.9 2441.05,-2313.22"/>
</g>
<!-- n12 -->
<g id="node24" class="node">
<title>n12</title>
<ellipse fill="none" stroke="forestgreen" cx="2980.61" cy="-1379.35" rx="76.9" ry="18"/>
<text text-anchor="middle" x="2980.61" y="-1376.25" font-family="Times,serif" font-size="12.00">kernels/rungen.sh</text>
</g>
<!-- n12&#45;&gt;n11 -->
<g id="edge62" class="edge">
<title>n12&#45;&gt;n11</title>
<path fill="none" stroke="black" d="M2903.52,-1379.35C2903.45,-1379.35 2903.38,-1379.35 2903.31,-1379.35"/>
<polygon fill="black" stroke="black" points="2913.1,-1375.86 2903.09,-1379.35 2913.09,-1382.86 2913.1,-1375.86"/>
</g>
<!-- n5 -->
<g id="node25" class="node">
<title>n5</title>
<ellipse fill="none" stroke="forestgreen" cx="155.35" cy="-1731.7" rx="92.18" ry="18"/>
<text text-anchor="middle" x="155.35" y="-1728.6" font-family="Times,serif" font-size="12.00">test/fusedMMtime.cpp</text>
</g>
<!-- n5&#45;&gt;n16 -->
<g id="edge16" class="edge">
<title>n5&#45;&gt;n16</title>
<path fill="none" stroke="black" d="M152.92,-1713.25C145.31,-1655.45 121.89,-1477.61 112.71,-1407.85"/>
<polygon fill="black" stroke="black" points="116.14,-1407.07 111.36,-1397.62 109.2,-1407.99 116.14,-1407.07"/>
</g>
<!-- n5&#45;&gt;n4 -->
<g id="edge19" class="edge">
<title>n5&#45;&gt;n4</title>
<path fill="none" stroke="black" d="M160.19,-1713.61C198.55,-1570.47 452.8,-621.57 500.12,-444.99"/>
<polygon fill="black" stroke="black" points="503.55,-445.71 502.75,-435.15 496.79,-443.9 503.55,-445.71"/>
</g>
<!-- n5&#45;&gt;n20 -->
<g id="edge22" class="edge">
<title>n5&#45;&gt;n20</title>
<path fill="none" stroke="black" d="M165.83,-1713.54C261.8,-1547.31 987.02,-291.19 1102.49,-91.19"/>
<polygon fill="black" stroke="black" points="1105.56,-92.88 1107.52,-82.47 1099.49,-89.38 1105.56,-92.88"/>
</g>
<!-- n5&#45;&gt;n14 -->
<g id="edge25" class="edge">
<title>n5&#45;&gt;n14</title>
<path fill="none" stroke="black" d="M157.76,-1713.33C174.04,-1589.74 267.51,-879.71 287.56,-727.43"/>
<polygon fill="black" stroke="black" points="291.09,-727.43 288.93,-717.06 284.15,-726.52 291.09,-727.43"/>
</g>
<!-- n5&#45;&gt;n18 -->
<g id="edge28" class="edge">
<title>n5&#45;&gt;n18</title>
<path fill="none" stroke="black" d="M162.85,-1749.82C185.42,-1804.31 252.78,-1966.93 279.87,-2032.33"/>
<polygon fill="black" stroke="black" points="276.8,-2034.06 283.86,-2041.96 283.27,-2031.39 276.8,-2034.06"/>
</g>
</g>
</svg>
