<?xml version="1.0" encoding="UTF-8" standalone="no"?>
<!DOCTYPE svg PUBLIC "-//W3C//DTD SVG 1.1//EN"
 "http://www.w3.org/Graphics/SVG/1.1/DTD/svg11.dtd">
<!-- Generated by graphviz version 2.43.0 (0)
 -->
<!-- Title: G Pages: 1 -->
<svg width="2648pt" height="260pt"
 viewBox="0.00 0.00 2648.08 260.00" xmlns="http://www.w3.org/2000/svg" xmlns:xlink="http://www.w3.org/1999/xlink">
<g id="graph0" class="graph" transform="scale(1 1) rotate(0) translate(4 256)">
<title>G</title>
<polygon fill="white" stroke="transparent" points="-4,4 -4,-256 2644.08,-256 2644.08,4 -4,4"/>
<!-- n2 -->
<g id="node1" class="node">
<title>n2</title>
<ellipse fill="none" stroke="red" cx="1304.42" cy="-18" rx="27" ry="18"/>
<text text-anchor="middle" x="1304.42" y="-14.9" font-family="Times,serif" font-size="12.00">all</text>
</g>
<!-- n8 -->
<g id="node2" class="node">
<title>n8</title>
<ellipse fill="none" stroke="red" cx="1389.42" cy="-162" rx="82.48" ry="18"/>
<text text-anchor="middle" x="1389.42" y="-158.9" font-family="Times,serif" font-size="12.00">bin/sFusedMM_pt.o</text>
</g>
<!-- n15 -->
<g id="node9" class="node">
<title>n15</title>
<ellipse fill="none" stroke="red" cx="652.42" cy="-90" rx="106.49" ry="18"/>
<text text-anchor="middle" x="652.42" y="-86.9" font-family="Times,serif" font-size="12.00">bin/xsFusedMMtime_fr_pt</text>
</g>
<!-- n8&#45;&gt;n15 -->
<g id="edge32" class="edge">
<title>n8&#45;&gt;n15</title>
<path fill="none" stroke="black" d="M1331.18,-149.19C1320.01,-147.23 1308.38,-145.38 1297.42,-144 1063.18,-114.5 1002.16,-133.28 767.42,-108 757.57,-106.94 747.26,-105.66 737.03,-104.28"/>
<polygon fill="black" stroke="black" points="737.24,-100.78 726.86,-102.88 736.29,-107.71 737.24,-100.78"/>
</g>
<!-- n3 -->
<g id="node10" class="node">
<title>n3</title>
<ellipse fill="none" stroke="red" cx="2251.42" cy="-90" rx="113.04" ry="18"/>
<text text-anchor="middle" x="2251.42" y="-86.9" font-family="Times,serif" font-size="12.00">bin/xsFusedMMtime_gcn_pt</text>
</g>
<!-- n8&#45;&gt;n3 -->
<g id="edge35" class="edge">
<title>n8&#45;&gt;n3</title>
<path fill="none" stroke="black" d="M1447.02,-149.08C1458.07,-147.12 1469.57,-145.31 1480.42,-144 1767.23,-109.4 1841.89,-135.96 2129.42,-108 2140.1,-106.96 2151.27,-105.68 2162.34,-104.29"/>
<polygon fill="black" stroke="black" points="2162.99,-107.73 2172.46,-102.98 2162.09,-100.79 2162.99,-107.73"/>
</g>
<!-- n19 -->
<g id="node11" class="node">
<title>n19</title>
<ellipse fill="none" stroke="red" cx="2511.42" cy="-90" rx="128.82" ry="18"/>
<text text-anchor="middle" x="2511.42" y="-86.9" font-family="Times,serif" font-size="12.00">bin/xsFusedMMtime_sigmoid_pt</text>
</g>
<!-- n8&#45;&gt;n19 -->
<g id="edge38" class="edge">
<title>n8&#45;&gt;n19</title>
<path fill="none" stroke="black" d="M1447,-148.95C1458.05,-147 1469.56,-145.23 1480.42,-144 1875.12,-99.41 1977.53,-140.31 2373.42,-108 2386.08,-106.97 2399.36,-105.64 2412.47,-104.19"/>
<polygon fill="black" stroke="black" points="2412.91,-107.66 2422.45,-103.05 2412.12,-100.7 2412.91,-107.66"/>
</g>
<!-- n13 -->
<g id="node12" class="node">
<title>n13</title>
<ellipse fill="none" stroke="red" cx="898.42" cy="-90" rx="121.77" ry="18"/>
<text text-anchor="middle" x="898.42" y="-86.9" font-family="Times,serif" font-size="12.00">bin/xsFusedMMtime_spmm_pt</text>
</g>
<!-- n8&#45;&gt;n13 -->
<g id="edge41" class="edge">
<title>n8&#45;&gt;n13</title>
<path fill="none" stroke="black" d="M1329.62,-149.49C1318.91,-147.57 1307.85,-145.65 1297.42,-144 1268.39,-139.39 1105.18,-117.95 996.7,-103.79"/>
<polygon fill="black" stroke="black" points="997.07,-100.31 986.7,-102.49 996.17,-107.25 997.07,-100.31"/>
</g>
<!-- n17 -->
<g id="node13" class="node">
<title>n17</title>
<ellipse fill="none" stroke="red" cx="2004.42" cy="-90" rx="115.96" ry="18"/>
<text text-anchor="middle" x="2004.42" y="-86.9" font-family="Times,serif" font-size="12.00">bin/xsFusedMMtime_tdist_pt</text>
</g>
<!-- n8&#45;&gt;n17 -->
<g id="edge44" class="edge">
<title>n8&#45;&gt;n17</title>
<path fill="none" stroke="black" d="M1448.03,-149.21C1458.78,-147.29 1469.92,-145.45 1480.42,-144 1656.8,-119.62 1702.5,-128 1879.42,-108 1890,-106.8 1901.07,-105.45 1912.07,-104.04"/>
<polygon fill="black" stroke="black" points="1912.66,-107.49 1922.12,-102.73 1911.75,-100.55 1912.66,-107.49"/>
</g>
<!-- n16 -->
<g id="node3" class="node">
<title>n16</title>
<ellipse fill="none" stroke="red" cx="651.42" cy="-162" rx="108.92" ry="18"/>
<text text-anchor="middle" x="651.42" y="-158.9" font-family="Times,serif" font-size="12.00">bin/sFusedMMtime_fr_pt.o</text>
</g>
<!-- n16&#45;&gt;n15 -->
<g id="edge33" class="edge">
<title>n16&#45;&gt;n15</title>
<path fill="none" stroke="black" d="M651.67,-143.7C651.78,-135.98 651.91,-126.71 652.04,-118.11"/>
<polygon fill="black" stroke="black" points="655.54,-118.15 652.18,-108.1 648.54,-118.05 655.54,-118.15"/>
</g>
<!-- n24 -->
<g id="node14" class="node">
<title>n24</title>
<ellipse fill="none" stroke="red" cx="119.42" cy="-90" rx="119.35" ry="18"/>
<text text-anchor="middle" x="119.42" y="-86.9" font-family="Times,serif" font-size="12.00">bin/xsOptFusedMMtime_fr_pt</text>
</g>
<!-- n16&#45;&gt;n24 -->
<g id="edge47" class="edge">
<title>n16&#45;&gt;n24</title>
<path fill="none" stroke="black" d="M572.74,-149.47C559.62,-147.6 546.14,-145.72 533.42,-144 406.9,-126.9 375.05,-124.34 248.42,-108 237.87,-106.64 226.84,-105.2 215.86,-103.77"/>
<polygon fill="black" stroke="black" points="216.18,-100.28 205.81,-102.45 215.27,-107.22 216.18,-100.28"/>
</g>
<!-- n4 -->
<g id="node4" class="node">
<title>n4</title>
<ellipse fill="none" stroke="red" cx="1861.42" cy="-162" rx="115.96" ry="18"/>
<text text-anchor="middle" x="1861.42" y="-158.9" font-family="Times,serif" font-size="12.00">bin/sFusedMMtime_gcn_pt.o</text>
</g>
<!-- n4&#45;&gt;n3 -->
<g id="edge36" class="edge">
<title>n4&#45;&gt;n3</title>
<path fill="none" stroke="black" d="M1934.32,-147.92C2001.04,-135.94 2099.67,-118.24 2169.18,-105.76"/>
<polygon fill="black" stroke="black" points="2169.99,-109.17 2179.21,-103.96 2168.75,-102.28 2169.99,-109.17"/>
</g>
<!-- n21 -->
<g id="node15" class="node">
<title>n21</title>
<ellipse fill="none" stroke="red" cx="1441.42" cy="-90" rx="126.62" ry="18"/>
<text text-anchor="middle" x="1441.42" y="-86.9" font-family="Times,serif" font-size="12.00">bin/xsOptFusedMMtime_gcn_pt</text>
</g>
<!-- n4&#45;&gt;n21 -->
<g id="edge50" class="edge">
<title>n4&#45;&gt;n21</title>
<path fill="none" stroke="black" d="M1785.37,-148.32C1713.54,-136.35 1605.82,-118.4 1530.12,-105.78"/>
<polygon fill="black" stroke="black" points="1530.56,-102.31 1520.12,-104.12 1529.41,-109.21 1530.56,-102.31"/>
</g>
<!-- n20 -->
<g id="node5" class="node">
<title>n20</title>
<ellipse fill="none" stroke="red" cx="2126.42" cy="-162" rx="131.97" ry="18"/>
<text text-anchor="middle" x="2126.42" y="-158.9" font-family="Times,serif" font-size="12.00">bin/sFusedMMtime_sigmoid_pt.o</text>
</g>
<!-- n20&#45;&gt;n19 -->
<g id="edge39" class="edge">
<title>n20&#45;&gt;n19</title>
<path fill="none" stroke="black" d="M2202.03,-147.25C2266.5,-135.53 2359.11,-118.69 2426.2,-106.5"/>
<polygon fill="black" stroke="black" points="2427.11,-109.89 2436.32,-104.66 2425.86,-103 2427.11,-109.89"/>
</g>
<!-- n26 -->
<g id="node16" class="node">
<title>n26</title>
<ellipse fill="none" stroke="red" cx="1728.42" cy="-90" rx="142.4" ry="18"/>
<text text-anchor="middle" x="1728.42" y="-86.9" font-family="Times,serif" font-size="12.00">bin/xsOptFusedMMtime_sigmoid_pt</text>
</g>
<!-- n20&#45;&gt;n26 -->
<g id="edge53" class="edge">
<title>n20&#45;&gt;n26</title>
<path fill="none" stroke="black" d="M2048.74,-147.34C1982.55,-135.69 1887.39,-118.96 1818,-106.75"/>
<polygon fill="black" stroke="black" points="1818.41,-103.27 1807.95,-104.99 1817.2,-110.17 1818.41,-103.27"/>
</g>
<!-- n14 -->
<g id="node6" class="node">
<title>n14</title>
<ellipse fill="none" stroke="red" cx="903.42" cy="-162" rx="124.93" ry="18"/>
<text text-anchor="middle" x="903.42" y="-158.9" font-family="Times,serif" font-size="12.00">bin/sFusedMMtime_spmm_pt.o</text>
</g>
<!-- n14&#45;&gt;n13 -->
<g id="edge42" class="edge">
<title>n14&#45;&gt;n13</title>
<path fill="none" stroke="black" d="M902.19,-143.7C901.64,-135.98 900.97,-126.71 900.36,-118.11"/>
<polygon fill="black" stroke="black" points="903.85,-117.83 899.65,-108.1 896.87,-118.33 903.85,-117.83"/>
</g>
<!-- n23 -->
<g id="node17" class="node">
<title>n23</title>
<ellipse fill="none" stroke="red" cx="392.42" cy="-90" rx="135.36" ry="18"/>
<text text-anchor="middle" x="392.42" y="-86.9" font-family="Times,serif" font-size="12.00">bin/xsOptFusedMMtime_spmm_pt</text>
</g>
<!-- n14&#45;&gt;n23 -->
<g id="edge56" class="edge">
<title>n14&#45;&gt;n23</title>
<path fill="none" stroke="black" d="M816.16,-149.05C726.64,-136.78 587.51,-117.72 493.31,-104.82"/>
<polygon fill="black" stroke="black" points="493.58,-101.32 483.2,-103.44 492.63,-108.26 493.58,-101.32"/>
</g>
<!-- n18 -->
<g id="node7" class="node">
<title>n18</title>
<ellipse fill="none" stroke="red" cx="1608.42" cy="-162" rx="118.62" ry="18"/>
<text text-anchor="middle" x="1608.42" y="-158.9" font-family="Times,serif" font-size="12.00">bin/sFusedMMtime_tdist_pt.o</text>
</g>
<!-- n18&#45;&gt;n17 -->
<g id="edge45" class="edge">
<title>n18&#45;&gt;n17</title>
<path fill="none" stroke="black" d="M1682.44,-147.92C1750.19,-135.94 1850.33,-118.24 1920.91,-105.76"/>
<polygon fill="black" stroke="black" points="1921.86,-109.15 1931.1,-103.96 1920.65,-102.26 1921.86,-109.15"/>
</g>
<!-- n25 -->
<g id="node18" class="node">
<title>n25</title>
<ellipse fill="none" stroke="red" cx="1167.42" cy="-90" rx="129.05" ry="18"/>
<text text-anchor="middle" x="1167.42" y="-86.9" font-family="Times,serif" font-size="12.00">bin/xsOptFusedMMtime_tdist_pt</text>
</g>
<!-- n18&#45;&gt;n25 -->
<g id="edge59" class="edge">
<title>n18&#45;&gt;n25</title>
<path fill="none" stroke="black" d="M1529.58,-148.49C1453.79,-136.46 1339.28,-118.28 1259.38,-105.6"/>
<polygon fill="black" stroke="black" points="1259.74,-102.11 1249.32,-104 1258.65,-109.02 1259.74,-102.11"/>
</g>
<!-- n22 -->
<g id="node8" class="node">
<title>n22</title>
<ellipse fill="none" stroke="red" cx="428.42" cy="-162" rx="96.06" ry="18"/>
<text text-anchor="middle" x="428.42" y="-158.9" font-family="Times,serif" font-size="12.00">bin/sOptFusedMM_pt.o</text>
</g>
<!-- n22&#45;&gt;n24 -->
<g id="edge48" class="edge">
<title>n22&#45;&gt;n24</title>
<path fill="none" stroke="black" d="M369.58,-147.67C319.22,-136.26 246.5,-119.79 192.44,-107.54"/>
<polygon fill="black" stroke="black" points="193.1,-104.1 182.57,-105.3 191.55,-110.93 193.1,-104.1"/>
</g>
<!-- n22&#45;&gt;n21 -->
<g id="edge51" class="edge">
<title>n22&#45;&gt;n21</title>
<path fill="none" stroke="black" d="M495.21,-149.02C507.87,-147.08 521.03,-145.29 533.42,-144 875.07,-108.49 963.19,-137.32 1305.42,-108 1317.68,-106.95 1330.53,-105.63 1343.23,-104.19"/>
<polygon fill="black" stroke="black" points="1343.84,-107.65 1353.37,-103.02 1343.04,-100.69 1343.84,-107.65"/>
</g>
<!-- n22&#45;&gt;n26 -->
<g id="edge54" class="edge">
<title>n22&#45;&gt;n26</title>
<path fill="none" stroke="black" d="M494.91,-148.94C507.66,-146.99 520.93,-145.22 533.42,-144 995.5,-98.81 1114.39,-142 1577.42,-108 1591.43,-106.97 1606.13,-105.64 1620.64,-104.17"/>
<polygon fill="black" stroke="black" points="1621.06,-107.64 1630.65,-103.13 1620.34,-100.68 1621.06,-107.64"/>
</g>
<!-- n22&#45;&gt;n23 -->
<g id="edge57" class="edge">
<title>n22&#45;&gt;n23</title>
<path fill="none" stroke="black" d="M419.71,-144.05C415.57,-136.01 410.53,-126.2 405.91,-117.23"/>
<polygon fill="black" stroke="black" points="408.99,-115.57 401.31,-108.28 402.77,-118.77 408.99,-115.57"/>
</g>
<!-- n22&#45;&gt;n25 -->
<g id="edge60" class="edge">
<title>n22&#45;&gt;n25</title>
<path fill="none" stroke="black" d="M496.08,-149.15C508.48,-147.23 521.32,-145.42 533.42,-144 752.95,-118.31 809.45,-129.52 1029.42,-108 1041.46,-106.82 1054.07,-105.45 1066.57,-104.02"/>
<polygon fill="black" stroke="black" points="1067.04,-107.49 1076.56,-102.85 1066.22,-100.53 1067.04,-107.49"/>
</g>
<!-- n15&#45;&gt;n2 -->
<g id="edge1" class="edge">
<title>n15&#45;&gt;n2</title>
<path fill="none" stroke="black" d="M728.13,-77.28C741.22,-75.4 754.7,-73.57 767.42,-72 955.09,-48.88 1180.63,-29.27 1267.68,-22.01"/>
<polygon fill="black" stroke="black" points="1268.16,-25.48 1277.83,-21.17 1267.58,-18.51 1268.16,-25.48"/>
</g>
<!-- n3&#45;&gt;n2 -->
<g id="edge2" class="edge">
<title>n3&#45;&gt;n2</title>
<path fill="none" stroke="black" d="M2172.12,-77.08C2157.92,-75.19 2143.25,-73.41 2129.42,-72 1826.18,-41.18 1458.31,-25.02 1341.72,-20.41"/>
<polygon fill="black" stroke="black" points="1341.68,-16.9 1331.55,-20.01 1341.4,-23.9 1341.68,-16.9"/>
</g>
<!-- n19&#45;&gt;n2 -->
<g id="edge3" class="edge">
<title>n19&#45;&gt;n2</title>
<path fill="none" stroke="black" d="M2422.07,-77.03C2405.9,-75.14 2389.18,-73.36 2373.42,-72 1970.12,-37.21 1479.09,-23.25 1341.7,-19.86"/>
<polygon fill="black" stroke="black" points="1341.41,-16.35 1331.32,-19.61 1341.24,-23.35 1341.41,-16.35"/>
</g>
<!-- n13&#45;&gt;n2 -->
<g id="edge4" class="edge">
<title>n13&#45;&gt;n2</title>
<path fill="none" stroke="black" d="M974.79,-75.83C1062.48,-60.71 1202.66,-36.55 1268.3,-25.23"/>
<polygon fill="black" stroke="black" points="1269.29,-28.61 1278.55,-23.46 1268.1,-21.71 1269.29,-28.61"/>
</g>
<!-- n17&#45;&gt;n2 -->
<g id="edge5" class="edge">
<title>n17&#45;&gt;n2</title>
<path fill="none" stroke="black" d="M1922.12,-77.29C1907.9,-75.42 1893.24,-73.58 1879.42,-72 1676.55,-48.87 1432.5,-28.99 1341.23,-21.84"/>
<polygon fill="black" stroke="black" points="1341.36,-18.34 1331.12,-21.05 1340.82,-25.32 1341.36,-18.34"/>
</g>
<!-- n24&#45;&gt;n2 -->
<g id="edge6" class="edge">
<title>n24&#45;&gt;n2</title>
<path fill="none" stroke="black" d="M202.59,-77.04C217.81,-75.13 233.58,-73.35 248.42,-72 646.23,-35.86 1130.75,-22.87 1267.14,-19.78"/>
<polygon fill="black" stroke="black" points="1267.52,-23.27 1277.44,-19.55 1267.37,-16.27 1267.52,-23.27"/>
</g>
<!-- n21&#45;&gt;n2 -->
<g id="edge7" class="edge">
<title>n21&#45;&gt;n2</title>
<path fill="none" stroke="black" d="M1408.96,-72.41C1386.25,-60.81 1356.15,-45.43 1334.09,-34.16"/>
<polygon fill="black" stroke="black" points="1335.66,-31.03 1325.17,-29.6 1332.48,-37.26 1335.66,-31.03"/>
</g>
<!-- n26&#45;&gt;n2 -->
<g id="edge8" class="edge">
<title>n26&#45;&gt;n2</title>
<path fill="none" stroke="black" d="M1645.67,-75.34C1553.25,-60.08 1407.84,-36.07 1340.66,-24.98"/>
<polygon fill="black" stroke="black" points="1341.01,-21.49 1330.57,-23.32 1339.87,-28.4 1341.01,-21.49"/>
</g>
<!-- n23&#45;&gt;n2 -->
<g id="edge9" class="edge">
<title>n23&#45;&gt;n2</title>
<path fill="none" stroke="black" d="M487.9,-77.15C504.4,-75.29 521.4,-73.49 537.42,-72 817.78,-45.89 1156.89,-26.82 1267.57,-20.92"/>
<polygon fill="black" stroke="black" points="1267.75,-24.42 1277.55,-20.39 1267.38,-17.43 1267.75,-24.42"/>
</g>
<!-- n25&#45;&gt;n2 -->
<g id="edge10" class="edge">
<title>n25&#45;&gt;n2</title>
<path fill="none" stroke="black" d="M1199.89,-72.41C1222.6,-60.81 1252.7,-45.43 1274.76,-34.16"/>
<polygon fill="black" stroke="black" points="1276.37,-37.26 1283.68,-29.6 1273.18,-31.03 1276.37,-37.26"/>
</g>
<!-- n9 -->
<g id="node19" class="node">
<title>n9</title>
<ellipse fill="none" stroke="forestgreen" cx="911.42" cy="-234" rx="51.19" ry="18"/>
<text text-anchor="middle" x="911.42" y="-230.9" font-family="Times,serif" font-size="12.00">fusedMM.c</text>
</g>
<!-- n9&#45;&gt;n8 -->
<g id="edge11" class="edge">
<title>n9&#45;&gt;n8</title>
<path fill="none" stroke="black" d="M958.77,-227.22C1031.66,-218.15 1175.71,-199.59 1297.42,-180 1304.67,-178.83 1312.23,-177.55 1319.76,-176.22"/>
<polygon fill="black" stroke="black" points="1320.38,-179.67 1329.61,-174.47 1319.15,-172.78 1320.38,-179.67"/>
</g>
<!-- n9&#45;&gt;n22 -->
<g id="edge29" class="edge">
<title>n9&#45;&gt;n22</title>
<path fill="none" stroke="black" d="M864.53,-226.75C793.03,-217.15 652.51,-197.99 533.42,-180 525.16,-178.75 516.53,-177.41 507.93,-176.05"/>
<polygon fill="black" stroke="black" points="508.29,-172.57 497.86,-174.46 507.19,-179.48 508.29,-172.57"/>
</g>
<!-- n6 -->
<g id="node20" class="node">
<title>n6</title>
<ellipse fill="none" stroke="forestgreen" cx="1389.42" cy="-234" rx="51.92" ry="18"/>
<text text-anchor="middle" x="1389.42" y="-230.9" font-family="Times,serif" font-size="12.00">fusedMM.h</text>
</g>
<!-- n6&#45;&gt;n8 -->
<g id="edge12" class="edge">
<title>n6&#45;&gt;n8</title>
<path fill="none" stroke="black" d="M1389.42,-215.7C1389.42,-207.98 1389.42,-198.71 1389.42,-190.11"/>
<polygon fill="black" stroke="black" points="1392.92,-190.1 1389.42,-180.1 1385.92,-190.1 1392.92,-190.1"/>
</g>
<!-- n6&#45;&gt;n16 -->
<g id="edge14" class="edge">
<title>n6&#45;&gt;n16</title>
<path fill="none" stroke="black" d="M1342.28,-226.52C1316.14,-223.07 1283.02,-218.95 1253.42,-216 1038.78,-194.62 983.86,-203.39 769.42,-180 759.29,-178.89 748.69,-177.58 738.17,-176.19"/>
<polygon fill="black" stroke="black" points="738.51,-172.71 728.13,-174.83 737.57,-179.64 738.51,-172.71"/>
</g>
<!-- n6&#45;&gt;n4 -->
<g id="edge17" class="edge">
<title>n6&#45;&gt;n4</title>
<path fill="none" stroke="black" d="M1433.25,-224.17C1447.62,-221.39 1463.68,-218.43 1478.42,-216 1492.59,-213.67 1659.02,-190.76 1767.77,-175.84"/>
<polygon fill="black" stroke="black" points="1768.35,-179.29 1777.78,-174.46 1767.4,-172.36 1768.35,-179.29"/>
</g>
<!-- n6&#45;&gt;n20 -->
<g id="edge20" class="edge">
<title>n6&#45;&gt;n20</title>
<path fill="none" stroke="black" d="M1432.26,-223.76C1446.85,-220.89 1463.29,-217.97 1478.42,-216 1702.87,-186.72 1761.12,-201.65 1986.42,-180 1998.54,-178.84 2011.23,-177.48 2023.81,-176.06"/>
<polygon fill="black" stroke="black" points="2024.33,-179.52 2033.87,-174.9 2023.53,-172.57 2024.33,-179.52"/>
</g>
<!-- n6&#45;&gt;n14 -->
<g id="edge23" class="edge">
<title>n6&#45;&gt;n14</title>
<path fill="none" stroke="black" d="M1342.38,-226.22C1263.31,-214.84 1102.26,-191.64 998.76,-176.73"/>
<polygon fill="black" stroke="black" points="999.02,-173.23 988.62,-175.27 998.02,-180.16 999.02,-173.23"/>
</g>
<!-- n6&#45;&gt;n18 -->
<g id="edge26" class="edge">
<title>n6&#45;&gt;n18</title>
<path fill="none" stroke="black" d="M1426.08,-221.28C1459.87,-210.48 1510.59,-194.27 1549.97,-181.68"/>
<polygon fill="black" stroke="black" points="1551.26,-184.95 1559.72,-178.57 1549.13,-178.28 1551.26,-184.95"/>
</g>
<!-- n6&#45;&gt;n22 -->
<g id="edge30" class="edge">
<title>n6&#45;&gt;n22</title>
<path fill="none" stroke="black" d="M1342.62,-226.28C1316.44,-222.74 1283.17,-218.6 1253.42,-216 934.24,-188.11 852.05,-213.66 533.42,-180 524.32,-179.04 514.81,-177.81 505.38,-176.46"/>
<polygon fill="black" stroke="black" points="505.62,-172.96 495.21,-174.95 504.59,-179.88 505.62,-172.96"/>
</g>
<!-- n10 -->
<g id="node21" class="node">
<title>n10</title>
<ellipse fill="none" stroke="forestgreen" cx="538.42" cy="-234" rx="84.17" ry="18"/>
<text text-anchor="middle" x="538.42" y="-230.9" font-family="Times,serif" font-size="12.00">fusedMM_internal.h</text>
</g>
<!-- n10&#45;&gt;n8 -->
<g id="edge13" class="edge">
<title>n10&#45;&gt;n8</title>
<path fill="none" stroke="black" d="M618.94,-228.53C786.53,-219.05 1168.02,-196.42 1297.42,-180 1305.13,-179.02 1313.16,-177.82 1321.14,-176.5"/>
<polygon fill="black" stroke="black" points="1321.91,-179.92 1331.18,-174.79 1320.73,-173.02 1321.91,-179.92"/>
</g>
<!-- n10&#45;&gt;n22 -->
<g id="edge31" class="edge">
<title>n10&#45;&gt;n22</title>
<path fill="none" stroke="black" d="M512.91,-216.76C498.02,-207.29 479.05,-195.21 462.85,-184.91"/>
<polygon fill="black" stroke="black" points="464.49,-181.81 454.18,-179.39 460.74,-187.71 464.49,-181.81"/>
</g>
<!-- n7 -->
<g id="node22" class="node">
<title>n7</title>
<ellipse fill="none" stroke="forestgreen" cx="1792.42" cy="-234" rx="102.61" ry="18"/>
<text text-anchor="middle" x="1792.42" y="-230.9" font-family="Times,serif" font-size="12.00">kernels/include/kernels.h</text>
</g>
<!-- n7&#45;&gt;n16 -->
<g id="edge15" class="edge">
<title>n7&#45;&gt;n16</title>
<path fill="none" stroke="black" d="M1721.17,-220.97C1707.67,-219.04 1693.64,-217.26 1680.42,-216 1277.05,-177.54 1172.94,-216.94 769.42,-180 758.85,-179.03 747.78,-177.77 736.83,-176.37"/>
<polygon fill="black" stroke="black" points="737.2,-172.89 726.83,-175.05 736.28,-179.83 737.2,-172.89"/>
</g>
<!-- n7&#45;&gt;n4 -->
<g id="edge18" class="edge">
<title>n7&#45;&gt;n4</title>
<path fill="none" stroke="black" d="M1809.13,-216.05C1817.56,-207.5 1827.95,-196.96 1837.24,-187.54"/>
<polygon fill="black" stroke="black" points="1839.87,-189.85 1844.4,-180.28 1834.88,-184.94 1839.87,-189.85"/>
</g>
<!-- n7&#45;&gt;n20 -->
<g id="edge21" class="edge">
<title>n7&#45;&gt;n20</title>
<path fill="none" stroke="black" d="M1855.64,-219.75C1910.17,-208.32 1989.15,-191.77 2047.76,-179.49"/>
<polygon fill="black" stroke="black" points="2048.65,-182.88 2057.71,-177.4 2047.21,-176.03 2048.65,-182.88"/>
</g>
<!-- n7&#45;&gt;n14 -->
<g id="edge24" class="edge">
<title>n7&#45;&gt;n14</title>
<path fill="none" stroke="black" d="M1720.55,-221.06C1707.24,-219.14 1693.43,-217.35 1680.42,-216 1395.72,-186.49 1322.46,-206.03 1037.42,-180 1025.56,-178.92 1013.14,-177.59 1000.84,-176.17"/>
<polygon fill="black" stroke="black" points="1000.89,-172.65 990.55,-174.95 1000.06,-179.6 1000.89,-172.65"/>
</g>
<!-- n7&#45;&gt;n18 -->
<g id="edge27" class="edge">
<title>n7&#45;&gt;n18</title>
<path fill="none" stroke="black" d="M1751.59,-217.46C1724.57,-207.19 1688.93,-193.63 1659.97,-182.61"/>
<polygon fill="black" stroke="black" points="1661.01,-179.26 1650.42,-178.98 1658.52,-185.8 1661.01,-179.26"/>
</g>
<!-- n11 -->
<g id="node23" class="node">
<title>n11</title>
<ellipse fill="none" stroke="red" cx="1167.42" cy="-162" rx="121.04" ry="18"/>
<text text-anchor="middle" x="1167.42" y="-158.9" font-family="Times,serif" font-size="12.00">kernels/lib/slibgfusedMM_pt.a</text>
</g>
<!-- n11&#45;&gt;n15 -->
<g id="edge34" class="edge">
<title>n11&#45;&gt;n15</title>
<path fill="none" stroke="black" d="M1079.66,-149.53C980.67,-136.56 825.87,-116.19 767.42,-108 758.23,-106.71 748.62,-105.34 739.05,-103.95"/>
<polygon fill="black" stroke="black" points="739.51,-100.48 729.11,-102.5 738.5,-107.4 739.51,-100.48"/>
</g>
<!-- n11&#45;&gt;n3 -->
<g id="edge37" class="edge">
<title>n11&#45;&gt;n3</title>
<path fill="none" stroke="black" d="M1251.52,-149C1267.09,-147.09 1283.23,-145.31 1298.42,-144 1666.73,-112.18 1761.27,-141.55 2129.42,-108 2140.38,-107 2151.85,-105.72 2163.2,-104.3"/>
<polygon fill="black" stroke="black" points="2163.65,-107.78 2173.12,-103.03 2162.76,-100.83 2163.65,-107.78"/>
</g>
<!-- n11&#45;&gt;n19 -->
<g id="edge40" class="edge">
<title>n11&#45;&gt;n19</title>
<path fill="none" stroke="black" d="M1251.16,-148.92C1266.84,-147.01 1283.11,-145.25 1298.42,-144 1774.89,-105.2 1896.83,-145.26 2373.42,-108 2386.18,-107 2399.56,-105.69 2412.77,-104.24"/>
<polygon fill="black" stroke="black" points="2413.29,-107.7 2422.83,-103.1 2412.5,-100.74 2413.29,-107.7"/>
</g>
<!-- n11&#45;&gt;n13 -->
<g id="edge43" class="edge">
<title>n11&#45;&gt;n13</title>
<path fill="none" stroke="black" d="M1110.05,-146.07C1067.73,-135.06 1010.03,-120.04 965.56,-108.47"/>
<polygon fill="black" stroke="black" points="966.27,-105.04 955.71,-105.91 964.51,-111.81 966.27,-105.04"/>
</g>
<!-- n11&#45;&gt;n17 -->
<g id="edge46" class="edge">
<title>n11&#45;&gt;n17</title>
<path fill="none" stroke="black" d="M1252.6,-149.1C1267.84,-147.22 1283.58,-145.42 1298.42,-144 1555.96,-119.34 1621.96,-133.45 1879.42,-108 1890.47,-106.91 1902.03,-105.58 1913.48,-104.16"/>
<polygon fill="black" stroke="black" points="1914.02,-107.62 1923.5,-102.89 1913.14,-100.68 1914.02,-107.62"/>
</g>
<!-- n11&#45;&gt;n24 -->
<g id="edge49" class="edge">
<title>n11&#45;&gt;n24</title>
<path fill="none" stroke="black" d="M1083.62,-148.98C1068.28,-147.09 1052.39,-145.32 1037.42,-144 687.74,-113.21 598.09,-138.96 248.42,-108 236.73,-106.96 224.48,-105.65 212.36,-104.21"/>
<polygon fill="black" stroke="black" points="212.58,-100.71 202.23,-102.98 211.74,-107.66 212.58,-100.71"/>
</g>
<!-- n11&#45;&gt;n21 -->
<g id="edge52" class="edge">
<title>n11&#45;&gt;n21</title>
<path fill="none" stroke="black" d="M1225.53,-146.15C1268.56,-135.16 1327.34,-120.15 1372.7,-108.56"/>
<polygon fill="black" stroke="black" points="1373.63,-111.93 1382.45,-106.07 1371.9,-105.15 1373.63,-111.93"/>
</g>
<!-- n11&#45;&gt;n26 -->
<g id="edge55" class="edge">
<title>n11&#45;&gt;n26</title>
<path fill="none" stroke="black" d="M1255.14,-149.54C1269.6,-147.67 1284.43,-145.77 1298.42,-144 1407.71,-130.17 1532.68,-114.82 1619.63,-104.21"/>
<polygon fill="black" stroke="black" points="1620.27,-107.66 1629.77,-102.98 1619.42,-100.71 1620.27,-107.66"/>
</g>
<!-- n11&#45;&gt;n23 -->
<g id="edge58" class="edge">
<title>n11&#45;&gt;n23</title>
<path fill="none" stroke="black" d="M1082.19,-149.13C1067.29,-147.26 1051.92,-145.47 1037.42,-144 815.76,-121.55 759.23,-128.98 537.42,-108 524.66,-106.79 511.27,-105.4 498.01,-103.94"/>
<polygon fill="black" stroke="black" points="498.23,-100.44 487.91,-102.81 497.46,-107.4 498.23,-100.44"/>
</g>
<!-- n11&#45;&gt;n25 -->
<g id="edge61" class="edge">
<title>n11&#45;&gt;n25</title>
<path fill="none" stroke="black" d="M1167.42,-143.7C1167.42,-135.98 1167.42,-126.71 1167.42,-118.11"/>
<polygon fill="black" stroke="black" points="1170.92,-118.1 1167.42,-108.1 1163.92,-118.1 1170.92,-118.1"/>
</g>
<!-- n12 -->
<g id="node24" class="node">
<title>n12</title>
<ellipse fill="none" stroke="forestgreen" cx="1167.42" cy="-234" rx="76.9" ry="18"/>
<text text-anchor="middle" x="1167.42" y="-230.9" font-family="Times,serif" font-size="12.00">kernels/rungen.sh</text>
</g>
<!-- n12&#45;&gt;n11 -->
<g id="edge62" class="edge">
<title>n12&#45;&gt;n11</title>
<path fill="none" stroke="black" d="M1167.42,-215.7C1167.42,-207.98 1167.42,-198.71 1167.42,-190.11"/>
<polygon fill="black" stroke="black" points="1170.92,-190.1 1167.42,-180.1 1163.92,-190.1 1170.92,-190.1"/>
</g>
<!-- n5 -->
<g id="node25" class="node">
<title>n5</title>
<ellipse fill="none" stroke="forestgreen" cx="1579.42" cy="-234" rx="92.18" ry="18"/>
<text text-anchor="middle" x="1579.42" y="-230.9" font-family="Times,serif" font-size="12.00">test/fusedMMtime.cpp</text>
</g>
<!-- n5&#45;&gt;n16 -->
<g id="edge16" class="edge">
<title>n5&#45;&gt;n16</title>
<path fill="none" stroke="black" d="M1507.89,-222.56C1489.22,-220.11 1469.09,-217.72 1450.42,-216 1148.61,-188.18 1071.06,-209.64 769.42,-180 758.94,-178.97 747.95,-177.68 737.09,-176.27"/>
<polygon fill="black" stroke="black" points="737.53,-172.79 727.16,-174.94 736.61,-179.73 737.53,-172.79"/>
</g>
<!-- n5&#45;&gt;n4 -->
<g id="edge19" class="edge">
<title>n5&#45;&gt;n4</title>
<path fill="none" stroke="black" d="M1634.13,-219.42C1679.38,-208.19 1743.91,-192.17 1792.65,-180.07"/>
<polygon fill="black" stroke="black" points="1793.63,-183.43 1802.49,-177.63 1791.94,-176.64 1793.63,-183.43"/>
</g>
<!-- n5&#45;&gt;n20 -->
<g id="edge22" class="edge">
<title>n5&#45;&gt;n20</title>
<path fill="none" stroke="black" d="M1645.63,-221.37C1657.21,-219.48 1669.16,-217.61 1680.42,-216 1815.98,-196.63 1850.45,-196.25 1986.42,-180 1997.82,-178.64 2009.74,-177.2 2021.6,-175.77"/>
<polygon fill="black" stroke="black" points="2022.03,-179.24 2031.54,-174.57 2021.19,-172.3 2022.03,-179.24"/>
</g>
<!-- n5&#45;&gt;n14 -->
<g id="edge25" class="edge">
<title>n5&#45;&gt;n14</title>
<path fill="none" stroke="black" d="M1506.83,-222.86C1488.45,-220.45 1468.73,-218 1450.42,-216 1267.27,-195.96 1220.63,-199.6 1037.42,-180 1025.95,-178.77 1013.93,-177.39 1002.01,-175.95"/>
<polygon fill="black" stroke="black" points="1002.37,-172.47 992.02,-174.74 1001.53,-179.42 1002.37,-172.47"/>
</g>
<!-- n5&#45;&gt;n18 -->
<g id="edge28" class="edge">
<title>n5&#45;&gt;n18</title>
<path fill="none" stroke="black" d="M1586.59,-215.7C1589.86,-207.81 1593.8,-198.3 1597.43,-189.55"/>
<polygon fill="black" stroke="black" points="1600.74,-190.68 1601.34,-180.1 1594.28,-188 1600.74,-190.68"/>
</g>
</g>
</svg>
